<mxfile host="app.diagrams.net" agent="Mozilla/5.0 (Macintosh; Intel Mac OS X 10_15_7) AppleWebKit/537.36 (KHTML, like Gecko) Chrome/128.0.0.0 Safari/537.36" version="26.0.16">
  <diagram name="Page-1" id="74e2e168-ea6b-b213-b513-2b3c1d86103e">
    <mxGraphModel dx="595" dy="563" grid="1" gridSize="10" guides="1" tooltips="1" connect="1" arrows="1" fold="1" page="1" pageScale="1" pageWidth="1100" pageHeight="850" background="none" math="0" shadow="0">
      <root>
        <mxCell id="0" />
        <mxCell id="1" parent="0" />
        <mxCell id="CywS-Gf4T-sr7dHhk5kF-2" value="&lt;h1 style=&quot;margin-top: 0px;&quot;&gt;&lt;font style=&quot;&quot;&gt;&lt;span style=&quot;text-align: center;&quot;&gt;&lt;span style=&quot;font-size: 21px;&quot;&gt;LISTA DE EXERCÍCICIOS – ENTRADAS E SAÍDAS &lt;/span&gt;&lt;font style=&quot;font-size: 17px;&quot;&gt;(Alice Salmazi, 223344 - Eng. Comp.)&lt;/font&gt;&lt;/span&gt;&lt;br&gt;&lt;/font&gt;&lt;/h1&gt;&lt;p&gt;1. Solicite ao usuário que insira seu nome e imprima&lt;br&gt;uma mensagem de saudação.&lt;br&gt;&lt;/p&gt;" style="text;html=1;whiteSpace=wrap;overflow=hidden;rounded=0;" parent="1" vertex="1">
          <mxGeometry x="19" y="10" width="500" height="90" as="geometry" />
        </mxCell>
        <mxCell id="CywS-Gf4T-sr7dHhk5kF-4" value="" style="line;strokeWidth=4;direction=south;html=1;perimeter=backbonePerimeter;points=[];outlineConnect=0;" parent="1" vertex="1">
          <mxGeometry x="330" y="60" width="10" height="1620" as="geometry" />
        </mxCell>
        <mxCell id="CywS-Gf4T-sr7dHhk5kF-5" value="" style="ellipse;whiteSpace=wrap;html=1;aspect=fixed;strokeColor=default;align=center;verticalAlign=middle;fontFamily=Helvetica;fontSize=12;fontColor=default;fillColor=default;" parent="1" vertex="1">
          <mxGeometry x="120" y="120" width="40" height="40" as="geometry" />
        </mxCell>
        <mxCell id="CywS-Gf4T-sr7dHhk5kF-6" value="Insira seu nome:" style="shape=parallelogram;perimeter=parallelogramPerimeter;whiteSpace=wrap;html=1;fixedSize=1;" parent="1" vertex="1">
          <mxGeometry x="25" y="200" width="230" height="40" as="geometry" />
        </mxCell>
        <mxCell id="CywS-Gf4T-sr7dHhk5kF-7" value="" style="endArrow=classic;html=1;rounded=0;exitX=0.5;exitY=1;exitDx=0;exitDy=0;entryX=0.5;entryY=0;entryDx=0;entryDy=0;" parent="1" source="CywS-Gf4T-sr7dHhk5kF-5" target="CywS-Gf4T-sr7dHhk5kF-6" edge="1">
          <mxGeometry width="50" height="50" relative="1" as="geometry">
            <mxPoint x="530" y="440" as="sourcePoint" />
            <mxPoint x="580" y="390" as="targetPoint" />
          </mxGeometry>
        </mxCell>
        <mxCell id="CywS-Gf4T-sr7dHhk5kF-10" value="" style="ellipse;whiteSpace=wrap;html=1;aspect=fixed;strokeColor=default;align=center;verticalAlign=middle;fontFamily=Helvetica;fontSize=12;fontColor=default;fillColor=default;strokeWidth=2;" parent="1" vertex="1">
          <mxGeometry x="120" y="360" width="40" height="40" as="geometry" />
        </mxCell>
        <mxCell id="CywS-Gf4T-sr7dHhk5kF-11" value="Olá, _____." style="shape=display;whiteSpace=wrap;html=1;" parent="1" vertex="1">
          <mxGeometry x="40" y="280" width="190" height="40" as="geometry" />
        </mxCell>
        <mxCell id="CywS-Gf4T-sr7dHhk5kF-12" value="" style="endArrow=classic;html=1;rounded=0;exitX=0.5;exitY=1;exitDx=0;exitDy=0;entryX=0.5;entryY=0;entryDx=0;entryDy=0;" parent="1" edge="1">
          <mxGeometry width="50" height="50" relative="1" as="geometry">
            <mxPoint x="139.5" y="240" as="sourcePoint" />
            <mxPoint x="139.5" y="280" as="targetPoint" />
          </mxGeometry>
        </mxCell>
        <mxCell id="CywS-Gf4T-sr7dHhk5kF-13" value="" style="endArrow=classic;html=1;rounded=0;exitX=0.5;exitY=1;exitDx=0;exitDy=0;entryX=0.5;entryY=0;entryDx=0;entryDy=0;" parent="1" edge="1">
          <mxGeometry width="50" height="50" relative="1" as="geometry">
            <mxPoint x="139.5" y="320" as="sourcePoint" />
            <mxPoint x="139.5" y="360" as="targetPoint" />
          </mxGeometry>
        </mxCell>
        <mxCell id="CywS-Gf4T-sr7dHhk5kF-15" value="" style="line;strokeWidth=2;html=1;" parent="1" vertex="1">
          <mxGeometry x="20" y="420" width="285" height="10" as="geometry" />
        </mxCell>
        <mxCell id="CywS-Gf4T-sr7dHhk5kF-17" value="2. Peça dois números ao usuário, some-os e imprima&lt;br&gt;o resultado." style="text;html=1;align=left;verticalAlign=middle;whiteSpace=wrap;rounded=0;" parent="1" vertex="1">
          <mxGeometry x="20" y="440" width="370" height="30" as="geometry" />
        </mxCell>
        <mxCell id="CywS-Gf4T-sr7dHhk5kF-19" value="" style="ellipse;whiteSpace=wrap;html=1;aspect=fixed;strokeColor=default;align=center;verticalAlign=middle;fontFamily=Helvetica;fontSize=12;fontColor=default;fillColor=default;strokeWidth=2;" parent="1" vertex="1">
          <mxGeometry x="120" y="880" width="40" height="40" as="geometry" />
        </mxCell>
        <mxCell id="CywS-Gf4T-sr7dHhk5kF-20" value="" style="ellipse;whiteSpace=wrap;html=1;aspect=fixed;strokeColor=default;align=center;verticalAlign=middle;fontFamily=Helvetica;fontSize=12;fontColor=default;fillColor=default;" parent="1" vertex="1">
          <mxGeometry x="120" y="480" width="40" height="40" as="geometry" />
        </mxCell>
        <mxCell id="CywS-Gf4T-sr7dHhk5kF-21" value="Insira o primeiro número:" style="shape=parallelogram;perimeter=parallelogramPerimeter;whiteSpace=wrap;html=1;fixedSize=1;" parent="1" vertex="1">
          <mxGeometry x="25" y="560" width="230" height="40" as="geometry" />
        </mxCell>
        <mxCell id="CywS-Gf4T-sr7dHhk5kF-22" value="Insira o segundo número:" style="shape=parallelogram;perimeter=parallelogramPerimeter;whiteSpace=wrap;html=1;fixedSize=1;" parent="1" vertex="1">
          <mxGeometry x="25" y="640" width="230" height="40" as="geometry" />
        </mxCell>
        <mxCell id="CywS-Gf4T-sr7dHhk5kF-24" value="somaNumeros = numero1 + numero2" style="rounded=0;whiteSpace=wrap;html=1;" parent="1" vertex="1">
          <mxGeometry x="40" y="720" width="200" height="40" as="geometry" />
        </mxCell>
        <mxCell id="CywS-Gf4T-sr7dHhk5kF-25" value="Resultado da soma: ____." style="shape=display;whiteSpace=wrap;html=1;" parent="1" vertex="1">
          <mxGeometry x="45" y="800" width="190" height="40" as="geometry" />
        </mxCell>
        <mxCell id="CywS-Gf4T-sr7dHhk5kF-26" value="" style="endArrow=classic;html=1;rounded=0;exitX=0.5;exitY=1;exitDx=0;exitDy=0;entryX=0.5;entryY=0;entryDx=0;entryDy=0;" parent="1" edge="1">
          <mxGeometry width="50" height="50" relative="1" as="geometry">
            <mxPoint x="139.5" y="520" as="sourcePoint" />
            <mxPoint x="139.5" y="560" as="targetPoint" />
          </mxGeometry>
        </mxCell>
        <mxCell id="CywS-Gf4T-sr7dHhk5kF-27" value="" style="endArrow=classic;html=1;rounded=0;exitX=0.5;exitY=1;exitDx=0;exitDy=0;entryX=0.5;entryY=0;entryDx=0;entryDy=0;" parent="1" edge="1">
          <mxGeometry width="50" height="50" relative="1" as="geometry">
            <mxPoint x="139.5" y="600" as="sourcePoint" />
            <mxPoint x="139.5" y="640" as="targetPoint" />
          </mxGeometry>
        </mxCell>
        <mxCell id="CywS-Gf4T-sr7dHhk5kF-28" value="" style="endArrow=classic;html=1;rounded=0;exitX=0.5;exitY=1;exitDx=0;exitDy=0;entryX=0.5;entryY=0;entryDx=0;entryDy=0;" parent="1" edge="1">
          <mxGeometry width="50" height="50" relative="1" as="geometry">
            <mxPoint x="139.5" y="680" as="sourcePoint" />
            <mxPoint x="139.5" y="720" as="targetPoint" />
          </mxGeometry>
        </mxCell>
        <mxCell id="CywS-Gf4T-sr7dHhk5kF-29" value="" style="endArrow=classic;html=1;rounded=0;exitX=0.5;exitY=1;exitDx=0;exitDy=0;entryX=0.5;entryY=0;entryDx=0;entryDy=0;" parent="1" edge="1">
          <mxGeometry width="50" height="50" relative="1" as="geometry">
            <mxPoint x="139.5" y="760" as="sourcePoint" />
            <mxPoint x="139.5" y="800" as="targetPoint" />
          </mxGeometry>
        </mxCell>
        <mxCell id="CywS-Gf4T-sr7dHhk5kF-30" value="" style="endArrow=classic;html=1;rounded=0;exitX=0.5;exitY=1;exitDx=0;exitDy=0;entryX=0.5;entryY=0;entryDx=0;entryDy=0;" parent="1" edge="1">
          <mxGeometry width="50" height="50" relative="1" as="geometry">
            <mxPoint x="139.5" y="840" as="sourcePoint" />
            <mxPoint x="139.5" y="880" as="targetPoint" />
          </mxGeometry>
        </mxCell>
        <mxCell id="CywS-Gf4T-sr7dHhk5kF-31" value="" style="line;strokeWidth=2;html=1;" parent="1" vertex="1">
          <mxGeometry x="20" y="940" width="285" height="10" as="geometry" />
        </mxCell>
        <mxCell id="CywS-Gf4T-sr7dHhk5kF-32" value="3. Solicite a idade do usuário e imprima uma&lt;br/&gt;mensagem indicando se é maior de idade." style="text;html=1;align=left;verticalAlign=middle;whiteSpace=wrap;rounded=0;" parent="1" vertex="1">
          <mxGeometry x="20" y="960" width="370" height="30" as="geometry" />
        </mxCell>
        <mxCell id="CywS-Gf4T-sr7dHhk5kF-34" value="" style="ellipse;whiteSpace=wrap;html=1;aspect=fixed;strokeColor=default;align=center;verticalAlign=middle;fontFamily=Helvetica;fontSize=12;fontColor=default;fillColor=default;" parent="1" vertex="1">
          <mxGeometry x="120" y="1040" width="40" height="40" as="geometry" />
        </mxCell>
        <mxCell id="CywS-Gf4T-sr7dHhk5kF-35" value="Insira sua idade:" style="shape=parallelogram;perimeter=parallelogramPerimeter;whiteSpace=wrap;html=1;fixedSize=1;" parent="1" vertex="1">
          <mxGeometry x="25" y="1120" width="230" height="40" as="geometry" />
        </mxCell>
        <mxCell id="CywS-Gf4T-sr7dHhk5kF-38" value="Você é maior de Idade" style="shape=display;whiteSpace=wrap;html=1;" parent="1" vertex="1">
          <mxGeometry x="170" y="1330" width="150" height="40" as="geometry" />
        </mxCell>
        <mxCell id="CywS-Gf4T-sr7dHhk5kF-39" value="" style="endArrow=classic;html=1;rounded=0;exitX=0.5;exitY=1;exitDx=0;exitDy=0;entryX=0.5;entryY=0;entryDx=0;entryDy=0;" parent="1" edge="1">
          <mxGeometry width="50" height="50" relative="1" as="geometry">
            <mxPoint x="139.5" y="1080" as="sourcePoint" />
            <mxPoint x="139.5" y="1120" as="targetPoint" />
          </mxGeometry>
        </mxCell>
        <mxCell id="CywS-Gf4T-sr7dHhk5kF-40" value="" style="endArrow=classic;html=1;rounded=0;exitX=0.5;exitY=1;exitDx=0;exitDy=0;entryX=0.5;entryY=0;entryDx=0;entryDy=0;" parent="1" edge="1">
          <mxGeometry width="50" height="50" relative="1" as="geometry">
            <mxPoint x="139.5" y="1160" as="sourcePoint" />
            <mxPoint x="139.5" y="1200" as="targetPoint" />
          </mxGeometry>
        </mxCell>
        <mxCell id="CywS-Gf4T-sr7dHhk5kF-42" value="" style="endArrow=classic;html=1;rounded=0;exitX=1;exitY=0.5;exitDx=0;exitDy=0;" parent="1" source="CywS-Gf4T-sr7dHhk5kF-44" edge="1">
          <mxGeometry width="50" height="50" relative="1" as="geometry">
            <mxPoint x="290" y="1255" as="sourcePoint" />
            <mxPoint x="290" y="1330" as="targetPoint" />
            <Array as="points">
              <mxPoint x="290" y="1240" />
            </Array>
          </mxGeometry>
        </mxCell>
        <mxCell id="CywS-Gf4T-sr7dHhk5kF-43" value="" style="endArrow=classic;html=1;rounded=0;exitX=0.5;exitY=1;exitDx=0;exitDy=0;entryX=0.5;entryY=0.05;entryDx=0;entryDy=0;entryPerimeter=0;" parent="1" target="CywS-Gf4T-sr7dHhk5kF-45" edge="1">
          <mxGeometry width="50" height="50" relative="1" as="geometry">
            <mxPoint x="139.5" y="1280" as="sourcePoint" />
            <mxPoint x="140" y="1380" as="targetPoint" />
          </mxGeometry>
        </mxCell>
        <mxCell id="CywS-Gf4T-sr7dHhk5kF-44" value="idadeUsuario &amp;gt;= 18" style="rhombus;whiteSpace=wrap;html=1;" parent="1" vertex="1">
          <mxGeometry x="10" y="1200" width="260" height="80" as="geometry" />
        </mxCell>
        <mxCell id="CywS-Gf4T-sr7dHhk5kF-45" value="Você é menor de Idade&amp;nbsp;" style="shape=display;whiteSpace=wrap;html=1;" parent="1" vertex="1">
          <mxGeometry x="64.5" y="1400" width="151" height="40" as="geometry" />
        </mxCell>
        <mxCell id="CywS-Gf4T-sr7dHhk5kF-48" value="&lt;b&gt;SIM&lt;/b&gt;" style="text;html=1;align=center;verticalAlign=middle;whiteSpace=wrap;rounded=0;" parent="1" vertex="1">
          <mxGeometry x="250" y="1220" width="60" height="30" as="geometry" />
        </mxCell>
        <mxCell id="CywS-Gf4T-sr7dHhk5kF-49" value="&lt;b&gt;NÃO&lt;/b&gt;" style="text;html=1;align=center;verticalAlign=middle;whiteSpace=wrap;rounded=0;" parent="1" vertex="1">
          <mxGeometry x="90" y="1380" width="60" height="30" as="geometry" />
        </mxCell>
        <mxCell id="CywS-Gf4T-sr7dHhk5kF-50" value="" style="ellipse;whiteSpace=wrap;html=1;aspect=fixed;strokeColor=default;align=center;verticalAlign=middle;fontFamily=Helvetica;fontSize=12;fontColor=default;fillColor=default;strokeWidth=2;" parent="1" vertex="1">
          <mxGeometry x="235" y="1440" width="40" height="40" as="geometry" />
        </mxCell>
        <mxCell id="CywS-Gf4T-sr7dHhk5kF-51" value="" style="endArrow=classic;html=1;rounded=0;entryX=0.5;entryY=0;entryDx=0;entryDy=0;exitX=0;exitY=0;exitDx=83.75;exitDy=40;exitPerimeter=0;" parent="1" source="CywS-Gf4T-sr7dHhk5kF-38" target="CywS-Gf4T-sr7dHhk5kF-50" edge="1">
          <mxGeometry width="50" height="50" relative="1" as="geometry">
            <mxPoint x="260" y="1380" as="sourcePoint" />
            <mxPoint x="150" y="1412" as="targetPoint" />
          </mxGeometry>
        </mxCell>
        <mxCell id="CywS-Gf4T-sr7dHhk5kF-52" value="" style="endArrow=classic;html=1;rounded=0;exitX=0.5;exitY=1;exitDx=0;exitDy=0;entryX=0;entryY=0.5;entryDx=0;entryDy=0;" parent="1" target="CywS-Gf4T-sr7dHhk5kF-50" edge="1">
          <mxGeometry width="50" height="50" relative="1" as="geometry">
            <mxPoint x="139.5" y="1440" as="sourcePoint" />
            <mxPoint x="139.5" y="1480" as="targetPoint" />
            <Array as="points">
              <mxPoint x="140" y="1460" />
            </Array>
          </mxGeometry>
        </mxCell>
        <mxCell id="CywS-Gf4T-sr7dHhk5kF-54" value="4. Peça o raio de um círculo e calcule sua área. Em seguida, imprima o resultado." style="text;html=1;align=left;verticalAlign=middle;whiteSpace=wrap;rounded=0;" parent="1" vertex="1">
          <mxGeometry x="365" y="70" width="275" height="30" as="geometry" />
        </mxCell>
        <mxCell id="CywS-Gf4T-sr7dHhk5kF-55" value="" style="line;strokeWidth=4;direction=south;html=1;perimeter=backbonePerimeter;points=[];outlineConnect=0;" parent="1" vertex="1">
          <mxGeometry x="640" y="30" width="10" height="1650" as="geometry" />
        </mxCell>
        <mxCell id="CywS-Gf4T-sr7dHhk5kF-56" value="" style="ellipse;whiteSpace=wrap;html=1;aspect=fixed;strokeColor=default;align=center;verticalAlign=middle;fontFamily=Helvetica;fontSize=12;fontColor=default;fillColor=default;strokeWidth=2;" parent="1" vertex="1">
          <mxGeometry x="460" y="440" width="40" height="40" as="geometry" />
        </mxCell>
        <mxCell id="CywS-Gf4T-sr7dHhk5kF-57" value="Insira o raio do círculo:" style="shape=parallelogram;perimeter=parallelogramPerimeter;whiteSpace=wrap;html=1;fixedSize=1;" parent="1" vertex="1">
          <mxGeometry x="365" y="200" width="230" height="40" as="geometry" />
        </mxCell>
        <mxCell id="CywS-Gf4T-sr7dHhk5kF-59" value="areaCirculo =&amp;nbsp; math.pi * raioCirculo **2" style="rounded=0;whiteSpace=wrap;html=1;" parent="1" vertex="1">
          <mxGeometry x="380" y="280" width="200" height="40" as="geometry" />
        </mxCell>
        <mxCell id="CywS-Gf4T-sr7dHhk5kF-60" value="A área do círculo é: ____." style="shape=display;whiteSpace=wrap;html=1;" parent="1" vertex="1">
          <mxGeometry x="380" y="360" width="190" height="40" as="geometry" />
        </mxCell>
        <mxCell id="CywS-Gf4T-sr7dHhk5kF-61" value="" style="endArrow=classic;html=1;rounded=0;exitX=0.5;exitY=1;exitDx=0;exitDy=0;entryX=0.5;entryY=0;entryDx=0;entryDy=0;" parent="1" edge="1">
          <mxGeometry width="50" height="50" relative="1" as="geometry">
            <mxPoint x="479.5" y="160" as="sourcePoint" />
            <mxPoint x="479.5" y="200" as="targetPoint" />
          </mxGeometry>
        </mxCell>
        <mxCell id="CywS-Gf4T-sr7dHhk5kF-62" value="" style="endArrow=classic;html=1;rounded=0;exitX=0.5;exitY=1;exitDx=0;exitDy=0;entryX=0.5;entryY=0;entryDx=0;entryDy=0;" parent="1" edge="1">
          <mxGeometry width="50" height="50" relative="1" as="geometry">
            <mxPoint x="479.5" y="240" as="sourcePoint" />
            <mxPoint x="479.5" y="280" as="targetPoint" />
          </mxGeometry>
        </mxCell>
        <mxCell id="CywS-Gf4T-sr7dHhk5kF-63" value="" style="endArrow=classic;html=1;rounded=0;exitX=0.5;exitY=1;exitDx=0;exitDy=0;entryX=0.5;entryY=0;entryDx=0;entryDy=0;" parent="1" edge="1">
          <mxGeometry width="50" height="50" relative="1" as="geometry">
            <mxPoint x="479.5" y="320" as="sourcePoint" />
            <mxPoint x="479.5" y="360" as="targetPoint" />
          </mxGeometry>
        </mxCell>
        <mxCell id="CywS-Gf4T-sr7dHhk5kF-64" value="" style="endArrow=classic;html=1;rounded=0;exitX=0.5;exitY=1;exitDx=0;exitDy=0;entryX=0.5;entryY=0;entryDx=0;entryDy=0;" parent="1" edge="1">
          <mxGeometry width="50" height="50" relative="1" as="geometry">
            <mxPoint x="479.5" y="400" as="sourcePoint" />
            <mxPoint x="479.5" y="440" as="targetPoint" />
          </mxGeometry>
        </mxCell>
        <mxCell id="CywS-Gf4T-sr7dHhk5kF-66" value="" style="ellipse;whiteSpace=wrap;html=1;aspect=fixed;strokeColor=default;align=center;verticalAlign=middle;fontFamily=Helvetica;fontSize=12;fontColor=default;fillColor=default;" parent="1" vertex="1">
          <mxGeometry x="460" y="120" width="40" height="40" as="geometry" />
        </mxCell>
        <mxCell id="CywS-Gf4T-sr7dHhk5kF-67" value="5. Solicite um número e imprima sua raiz quadrada." style="text;html=1;align=left;verticalAlign=middle;whiteSpace=wrap;rounded=0;" parent="1" vertex="1">
          <mxGeometry x="365" y="510" width="275" height="30" as="geometry" />
        </mxCell>
        <mxCell id="CywS-Gf4T-sr7dHhk5kF-68" value="" style="line;strokeWidth=2;html=1;" parent="1" vertex="1">
          <mxGeometry x="350" y="490" width="280" height="10" as="geometry" />
        </mxCell>
        <mxCell id="CywS-Gf4T-sr7dHhk5kF-69" value="Insira um numero:" style="shape=parallelogram;perimeter=parallelogramPerimeter;whiteSpace=wrap;html=1;fixedSize=1;" parent="1" vertex="1">
          <mxGeometry x="365" y="640" width="230" height="40" as="geometry" />
        </mxCell>
        <mxCell id="CywS-Gf4T-sr7dHhk5kF-70" value="resultadoRaiz = math.sqrt(numero)" style="rounded=0;whiteSpace=wrap;html=1;" parent="1" vertex="1">
          <mxGeometry x="380" y="720" width="200" height="40" as="geometry" />
        </mxCell>
        <mxCell id="CywS-Gf4T-sr7dHhk5kF-71" value="&quot;A raiz quadrada de {numero} é: {resultadoRaiz}&quot;" style="shape=display;whiteSpace=wrap;html=1;" parent="1" vertex="1">
          <mxGeometry x="350" y="800" width="280" height="40" as="geometry" />
        </mxCell>
        <mxCell id="CywS-Gf4T-sr7dHhk5kF-72" value="" style="endArrow=classic;html=1;rounded=0;exitX=0.5;exitY=1;exitDx=0;exitDy=0;entryX=0.5;entryY=0;entryDx=0;entryDy=0;" parent="1" edge="1">
          <mxGeometry width="50" height="50" relative="1" as="geometry">
            <mxPoint x="479.5" y="600" as="sourcePoint" />
            <mxPoint x="479.5" y="640" as="targetPoint" />
          </mxGeometry>
        </mxCell>
        <mxCell id="CywS-Gf4T-sr7dHhk5kF-73" value="" style="endArrow=classic;html=1;rounded=0;exitX=0.5;exitY=1;exitDx=0;exitDy=0;entryX=0.5;entryY=0;entryDx=0;entryDy=0;" parent="1" edge="1">
          <mxGeometry width="50" height="50" relative="1" as="geometry">
            <mxPoint x="479.5" y="680" as="sourcePoint" />
            <mxPoint x="479.5" y="720" as="targetPoint" />
          </mxGeometry>
        </mxCell>
        <mxCell id="CywS-Gf4T-sr7dHhk5kF-74" value="" style="endArrow=classic;html=1;rounded=0;exitX=0.5;exitY=1;exitDx=0;exitDy=0;entryX=0.5;entryY=0;entryDx=0;entryDy=0;" parent="1" edge="1">
          <mxGeometry width="50" height="50" relative="1" as="geometry">
            <mxPoint x="479.5" y="760" as="sourcePoint" />
            <mxPoint x="479.5" y="800" as="targetPoint" />
          </mxGeometry>
        </mxCell>
        <mxCell id="CywS-Gf4T-sr7dHhk5kF-75" value="" style="endArrow=classic;html=1;rounded=0;exitX=0.5;exitY=1;exitDx=0;exitDy=0;entryX=0.5;entryY=0;entryDx=0;entryDy=0;" parent="1" edge="1">
          <mxGeometry width="50" height="50" relative="1" as="geometry">
            <mxPoint x="479.5" y="840" as="sourcePoint" />
            <mxPoint x="479.5" y="880" as="targetPoint" />
          </mxGeometry>
        </mxCell>
        <mxCell id="CywS-Gf4T-sr7dHhk5kF-76" value="" style="ellipse;whiteSpace=wrap;html=1;aspect=fixed;strokeColor=default;align=center;verticalAlign=middle;fontFamily=Helvetica;fontSize=12;fontColor=default;fillColor=default;strokeWidth=2;" parent="1" vertex="1">
          <mxGeometry x="460" y="880" width="40" height="40" as="geometry" />
        </mxCell>
        <mxCell id="CywS-Gf4T-sr7dHhk5kF-77" value="" style="ellipse;whiteSpace=wrap;html=1;aspect=fixed;strokeColor=default;align=center;verticalAlign=middle;fontFamily=Helvetica;fontSize=12;fontColor=default;fillColor=default;" parent="1" vertex="1">
          <mxGeometry x="460" y="560" width="40" height="40" as="geometry" />
        </mxCell>
        <mxCell id="CywS-Gf4T-sr7dHhk5kF-78" value="6. Peça ao usuário para inserir dois números e&lt;br/&gt;imprima o resultado da multiplicação entre eles." style="text;html=1;align=left;verticalAlign=middle;whiteSpace=wrap;rounded=0;" parent="1" vertex="1">
          <mxGeometry x="360" y="960" width="275" height="30" as="geometry" />
        </mxCell>
        <mxCell id="CywS-Gf4T-sr7dHhk5kF-79" value="" style="line;strokeWidth=2;html=1;" parent="1" vertex="1">
          <mxGeometry x="345" y="940" width="280" height="10" as="geometry" />
        </mxCell>
        <mxCell id="CywS-Gf4T-sr7dHhk5kF-80" value="" style="ellipse;whiteSpace=wrap;html=1;aspect=fixed;strokeColor=default;align=center;verticalAlign=middle;fontFamily=Helvetica;fontSize=12;fontColor=default;fillColor=default;strokeWidth=2;" parent="1" vertex="1">
          <mxGeometry x="460" y="1400" width="40" height="40" as="geometry" />
        </mxCell>
        <mxCell id="CywS-Gf4T-sr7dHhk5kF-171" value="" style="edgeStyle=orthogonalEdgeStyle;rounded=0;orthogonalLoop=1;jettySize=auto;html=1;" parent="1" source="CywS-Gf4T-sr7dHhk5kF-81" target="CywS-Gf4T-sr7dHhk5kF-82" edge="1">
          <mxGeometry relative="1" as="geometry" />
        </mxCell>
        <mxCell id="CywS-Gf4T-sr7dHhk5kF-81" value="Insira o primeiro número:" style="shape=parallelogram;perimeter=parallelogramPerimeter;whiteSpace=wrap;html=1;fixedSize=1;" parent="1" vertex="1">
          <mxGeometry x="365" y="1080" width="230" height="40" as="geometry" />
        </mxCell>
        <mxCell id="CywS-Gf4T-sr7dHhk5kF-82" value="Insira o segundo número:" style="shape=parallelogram;perimeter=parallelogramPerimeter;whiteSpace=wrap;html=1;fixedSize=1;" parent="1" vertex="1">
          <mxGeometry x="365" y="1160" width="230" height="40" as="geometry" />
        </mxCell>
        <mxCell id="CywS-Gf4T-sr7dHhk5kF-83" value="multiplicacaoNumeros = numero1 * numero2" style="rounded=0;whiteSpace=wrap;html=1;" parent="1" vertex="1">
          <mxGeometry x="380" y="1240" width="200" height="40" as="geometry" />
        </mxCell>
        <mxCell id="CywS-Gf4T-sr7dHhk5kF-84" value="Resultado da multiplicação: ____." style="shape=display;whiteSpace=wrap;html=1;" parent="1" vertex="1">
          <mxGeometry x="385" y="1320" width="190" height="40" as="geometry" />
        </mxCell>
        <mxCell id="CywS-Gf4T-sr7dHhk5kF-85" value="" style="endArrow=classic;html=1;rounded=0;exitX=0.5;exitY=1;exitDx=0;exitDy=0;entryX=0.5;entryY=0;entryDx=0;entryDy=0;" parent="1" edge="1">
          <mxGeometry width="50" height="50" relative="1" as="geometry">
            <mxPoint x="479.5" y="1040" as="sourcePoint" />
            <mxPoint x="479.5" y="1080" as="targetPoint" />
          </mxGeometry>
        </mxCell>
        <mxCell id="CywS-Gf4T-sr7dHhk5kF-86" value="" style="endArrow=classic;html=1;rounded=0;exitX=0.5;exitY=1;exitDx=0;exitDy=0;entryX=0.5;entryY=0;entryDx=0;entryDy=0;" parent="1" edge="1">
          <mxGeometry width="50" height="50" relative="1" as="geometry">
            <mxPoint x="479.5" y="1120" as="sourcePoint" />
            <mxPoint x="479.5" y="1160" as="targetPoint" />
          </mxGeometry>
        </mxCell>
        <mxCell id="CywS-Gf4T-sr7dHhk5kF-87" value="" style="endArrow=classic;html=1;rounded=0;exitX=0.5;exitY=1;exitDx=0;exitDy=0;entryX=0.5;entryY=0;entryDx=0;entryDy=0;" parent="1" edge="1">
          <mxGeometry width="50" height="50" relative="1" as="geometry">
            <mxPoint x="479.5" y="1200" as="sourcePoint" />
            <mxPoint x="479.5" y="1240" as="targetPoint" />
          </mxGeometry>
        </mxCell>
        <mxCell id="CywS-Gf4T-sr7dHhk5kF-88" value="" style="endArrow=classic;html=1;rounded=0;exitX=0.5;exitY=1;exitDx=0;exitDy=0;entryX=0.5;entryY=0;entryDx=0;entryDy=0;" parent="1" edge="1">
          <mxGeometry width="50" height="50" relative="1" as="geometry">
            <mxPoint x="479.5" y="1280" as="sourcePoint" />
            <mxPoint x="479.5" y="1320" as="targetPoint" />
          </mxGeometry>
        </mxCell>
        <mxCell id="CywS-Gf4T-sr7dHhk5kF-89" value="" style="endArrow=classic;html=1;rounded=0;exitX=0.5;exitY=1;exitDx=0;exitDy=0;entryX=0.5;entryY=0;entryDx=0;entryDy=0;" parent="1" edge="1">
          <mxGeometry width="50" height="50" relative="1" as="geometry">
            <mxPoint x="479.5" y="1360" as="sourcePoint" />
            <mxPoint x="479.5" y="1400" as="targetPoint" />
          </mxGeometry>
        </mxCell>
        <mxCell id="CywS-Gf4T-sr7dHhk5kF-90" value="" style="ellipse;whiteSpace=wrap;html=1;aspect=fixed;strokeColor=default;align=center;verticalAlign=middle;fontFamily=Helvetica;fontSize=12;fontColor=default;fillColor=default;" parent="1" vertex="1">
          <mxGeometry x="460" y="1000" width="40" height="40" as="geometry" />
        </mxCell>
        <mxCell id="CywS-Gf4T-sr7dHhk5kF-91" value="7. Solicite a altura e o peso do usuário. Calcule o IMC&lt;br/&gt;(Índice de Massa Corporal) e imprima o resultado." style="text;html=1;align=left;verticalAlign=middle;whiteSpace=wrap;rounded=0;" parent="1" vertex="1">
          <mxGeometry x="680" y="30" width="320" height="30" as="geometry" />
        </mxCell>
        <mxCell id="CywS-Gf4T-sr7dHhk5kF-93" value="Insira seu peso:" style="shape=parallelogram;perimeter=parallelogramPerimeter;whiteSpace=wrap;html=1;fixedSize=1;" parent="1" vertex="1">
          <mxGeometry x="810" y="160" width="230" height="40" as="geometry" />
        </mxCell>
        <mxCell id="CywS-Gf4T-sr7dHhk5kF-94" value="Insira sua altura:" style="shape=parallelogram;perimeter=parallelogramPerimeter;whiteSpace=wrap;html=1;fixedSize=1;" parent="1" vertex="1">
          <mxGeometry x="810" y="240" width="230" height="40" as="geometry" />
        </mxCell>
        <mxCell id="CywS-Gf4T-sr7dHhk5kF-95" value="imc = peso / pow(altura,2)" style="rounded=0;whiteSpace=wrap;html=1;" parent="1" vertex="1">
          <mxGeometry x="825" y="320" width="200" height="40" as="geometry" />
        </mxCell>
        <mxCell id="CywS-Gf4T-sr7dHhk5kF-97" value="" style="endArrow=classic;html=1;rounded=0;exitX=0.5;exitY=1;exitDx=0;exitDy=0;entryX=0.5;entryY=0;entryDx=0;entryDy=0;" parent="1" edge="1">
          <mxGeometry width="50" height="50" relative="1" as="geometry">
            <mxPoint x="924.5" y="120" as="sourcePoint" />
            <mxPoint x="924.5" y="160" as="targetPoint" />
          </mxGeometry>
        </mxCell>
        <mxCell id="CywS-Gf4T-sr7dHhk5kF-98" value="" style="endArrow=classic;html=1;rounded=0;exitX=0.5;exitY=1;exitDx=0;exitDy=0;entryX=0.5;entryY=0;entryDx=0;entryDy=0;" parent="1" edge="1">
          <mxGeometry width="50" height="50" relative="1" as="geometry">
            <mxPoint x="924.5" y="200" as="sourcePoint" />
            <mxPoint x="924.5" y="240" as="targetPoint" />
          </mxGeometry>
        </mxCell>
        <mxCell id="CywS-Gf4T-sr7dHhk5kF-99" value="" style="endArrow=classic;html=1;rounded=0;exitX=0.5;exitY=1;exitDx=0;exitDy=0;entryX=0.5;entryY=0;entryDx=0;entryDy=0;" parent="1" edge="1">
          <mxGeometry width="50" height="50" relative="1" as="geometry">
            <mxPoint x="924.5" y="280" as="sourcePoint" />
            <mxPoint x="924.5" y="320" as="targetPoint" />
          </mxGeometry>
        </mxCell>
        <mxCell id="CywS-Gf4T-sr7dHhk5kF-100" value="" style="endArrow=classic;html=1;rounded=0;exitX=0.5;exitY=1;exitDx=0;exitDy=0;entryX=0.5;entryY=0;entryDx=0;entryDy=0;" parent="1" edge="1">
          <mxGeometry width="50" height="50" relative="1" as="geometry">
            <mxPoint x="924.5" y="360" as="sourcePoint" />
            <mxPoint x="924.5" y="400" as="targetPoint" />
          </mxGeometry>
        </mxCell>
        <mxCell id="CywS-Gf4T-sr7dHhk5kF-102" value="" style="ellipse;whiteSpace=wrap;html=1;aspect=fixed;strokeColor=default;align=center;verticalAlign=middle;fontFamily=Helvetica;fontSize=12;fontColor=default;fillColor=default;" parent="1" vertex="1">
          <mxGeometry x="905" y="80" width="40" height="40" as="geometry" />
        </mxCell>
        <mxCell id="CywS-Gf4T-sr7dHhk5kF-104" value="" style="endArrow=classic;html=1;rounded=0;exitX=0;exitY=0.5;exitDx=0;exitDy=0;" parent="1" source="CywS-Gf4T-sr7dHhk5kF-106" edge="1">
          <mxGeometry width="50" height="50" relative="1" as="geometry">
            <mxPoint x="799.98" y="440.01" as="sourcePoint" />
            <mxPoint x="770" y="480" as="targetPoint" />
            <Array as="points">
              <mxPoint x="770" y="440" />
            </Array>
          </mxGeometry>
        </mxCell>
        <mxCell id="CywS-Gf4T-sr7dHhk5kF-105" value="" style="endArrow=classic;html=1;rounded=0;" parent="1" edge="1">
          <mxGeometry width="50" height="50" relative="1" as="geometry">
            <mxPoint x="940" y="558" as="sourcePoint" />
            <mxPoint x="865" y="600" as="targetPoint" />
            <Array as="points">
              <mxPoint x="865" y="558" />
            </Array>
          </mxGeometry>
        </mxCell>
        <mxCell id="CywS-Gf4T-sr7dHhk5kF-106" value="imc &amp;lt; 16" style="rhombus;whiteSpace=wrap;html=1;" parent="1" vertex="1">
          <mxGeometry x="790" y="400" width="270" height="80" as="geometry" />
        </mxCell>
        <mxCell id="CywS-Gf4T-sr7dHhk5kF-111" value="" style="endArrow=classic;html=1;rounded=0;exitX=1;exitY=0.5;exitDx=0;exitDy=0;entryX=0.5;entryY=0;entryDx=0;entryDy=0;" parent="1" source="CywS-Gf4T-sr7dHhk5kF-106" target="CywS-Gf4T-sr7dHhk5kF-122" edge="1">
          <mxGeometry width="50" height="50" relative="1" as="geometry">
            <mxPoint x="1080" y="410" as="sourcePoint" />
            <mxPoint x="1080" y="490" as="targetPoint" />
            <Array as="points">
              <mxPoint x="1060" y="500" />
              <mxPoint x="1000" y="500" />
            </Array>
          </mxGeometry>
        </mxCell>
        <mxCell id="CywS-Gf4T-sr7dHhk5kF-103" value="Seu estado é de magreza grave\nProcure um médico ou nutricionista." style="shape=display;whiteSpace=wrap;html=1;" parent="1" vertex="1">
          <mxGeometry x="660" y="480" width="260" height="60" as="geometry" />
        </mxCell>
        <mxCell id="CywS-Gf4T-sr7dHhk5kF-108" value="&lt;b&gt;SIM&lt;/b&gt;" style="text;html=1;align=center;verticalAlign=middle;whiteSpace=wrap;rounded=0;" parent="1" vertex="1">
          <mxGeometry x="750" y="420" width="60" height="30" as="geometry" />
        </mxCell>
        <mxCell id="CywS-Gf4T-sr7dHhk5kF-118" value="Seu estado é de magreza moderada\nPrecisa rever sua alimentação." style="shape=display;whiteSpace=wrap;html=1;" parent="1" vertex="1">
          <mxGeometry x="670" y="600" width="260" height="60" as="geometry" />
        </mxCell>
        <mxCell id="CywS-Gf4T-sr7dHhk5kF-109" value="&lt;b&gt;NÃO&lt;/b&gt;" style="text;html=1;align=center;verticalAlign=middle;whiteSpace=wrap;rounded=0;" parent="1" vertex="1">
          <mxGeometry x="980" y="470" width="60" height="30" as="geometry" />
        </mxCell>
        <mxCell id="CywS-Gf4T-sr7dHhk5kF-122" value="imc &amp;lt; 17" style="rhombus;whiteSpace=wrap;html=1;" parent="1" vertex="1">
          <mxGeometry x="930" y="530" width="140" height="60" as="geometry" />
        </mxCell>
        <mxCell id="CywS-Gf4T-sr7dHhk5kF-123" value="&lt;b&gt;SIM&lt;/b&gt;" style="text;html=1;align=center;verticalAlign=middle;whiteSpace=wrap;rounded=0;" parent="1" vertex="1">
          <mxGeometry x="890" y="540" width="60" height="30" as="geometry" />
        </mxCell>
        <mxCell id="CywS-Gf4T-sr7dHhk5kF-124" value="&lt;b&gt;NÃO&lt;/b&gt;" style="text;html=1;align=center;verticalAlign=middle;whiteSpace=wrap;rounded=0;" parent="1" vertex="1">
          <mxGeometry x="1010" y="590" width="60" height="30" as="geometry" />
        </mxCell>
        <mxCell id="CywS-Gf4T-sr7dHhk5kF-127" value="" style="endArrow=classic;html=1;rounded=0;" parent="1" edge="1">
          <mxGeometry width="50" height="50" relative="1" as="geometry">
            <mxPoint x="945" y="678" as="sourcePoint" />
            <mxPoint x="870" y="720" as="targetPoint" />
            <Array as="points">
              <mxPoint x="870" y="678" />
            </Array>
          </mxGeometry>
        </mxCell>
        <mxCell id="CywS-Gf4T-sr7dHhk5kF-128" value="imc &amp;lt; 18.5" style="rhombus;whiteSpace=wrap;html=1;" parent="1" vertex="1">
          <mxGeometry x="940" y="650" width="140" height="60" as="geometry" />
        </mxCell>
        <mxCell id="CywS-Gf4T-sr7dHhk5kF-129" value="&lt;b&gt;SIM&lt;/b&gt;" style="text;html=1;align=center;verticalAlign=middle;whiteSpace=wrap;rounded=0;" parent="1" vertex="1">
          <mxGeometry x="895" y="660" width="60" height="30" as="geometry" />
        </mxCell>
        <mxCell id="CywS-Gf4T-sr7dHhk5kF-132" value="Seu estado é de magreza leve\nPrecisa rever sua alimentação." style="shape=display;whiteSpace=wrap;html=1;" parent="1" vertex="1">
          <mxGeometry x="680" y="720" width="260" height="60" as="geometry" />
        </mxCell>
        <mxCell id="CywS-Gf4T-sr7dHhk5kF-133" value="" style="endArrow=classic;html=1;rounded=0;" parent="1" edge="1">
          <mxGeometry width="50" height="50" relative="1" as="geometry">
            <mxPoint x="945" y="798" as="sourcePoint" />
            <mxPoint x="870" y="840" as="targetPoint" />
            <Array as="points">
              <mxPoint x="870" y="798" />
            </Array>
          </mxGeometry>
        </mxCell>
        <mxCell id="CywS-Gf4T-sr7dHhk5kF-134" value="imc &amp;lt; 25" style="rhombus;whiteSpace=wrap;html=1;" parent="1" vertex="1">
          <mxGeometry x="940" y="770" width="140" height="60" as="geometry" />
        </mxCell>
        <mxCell id="CywS-Gf4T-sr7dHhk5kF-135" value="&lt;b&gt;SIM&lt;/b&gt;" style="text;html=1;align=center;verticalAlign=middle;whiteSpace=wrap;rounded=0;" parent="1" vertex="1">
          <mxGeometry x="895" y="780" width="60" height="30" as="geometry" />
        </mxCell>
        <mxCell id="CywS-Gf4T-sr7dHhk5kF-136" value="&lt;b&gt;NÃO&lt;/b&gt;" style="text;html=1;align=center;verticalAlign=middle;whiteSpace=wrap;rounded=0;" parent="1" vertex="1">
          <mxGeometry x="1020" y="820" width="60" height="30" as="geometry" />
        </mxCell>
        <mxCell id="CywS-Gf4T-sr7dHhk5kF-137" value="" style="endArrow=classic;html=1;rounded=0;exitX=1;exitY=0.5;exitDx=0;exitDy=0;entryX=0.5;entryY=0;entryDx=0;entryDy=0;" parent="1" target="CywS-Gf4T-sr7dHhk5kF-141" edge="1">
          <mxGeometry width="50" height="50" relative="1" as="geometry">
            <mxPoint x="1075" y="800" as="sourcePoint" />
            <mxPoint x="1095" y="850" as="targetPoint" />
            <Array as="points">
              <mxPoint x="1075" y="850" />
              <mxPoint x="1010" y="850" />
            </Array>
          </mxGeometry>
        </mxCell>
        <mxCell id="CywS-Gf4T-sr7dHhk5kF-138" value="Seu estado é saudável\nParabéns!" style="shape=display;whiteSpace=wrap;html=1;" parent="1" vertex="1">
          <mxGeometry x="680" y="840" width="260" height="60" as="geometry" />
        </mxCell>
        <mxCell id="CywS-Gf4T-sr7dHhk5kF-140" value="" style="endArrow=classic;html=1;rounded=0;" parent="1" edge="1">
          <mxGeometry width="50" height="50" relative="1" as="geometry">
            <mxPoint x="945" y="918" as="sourcePoint" />
            <mxPoint x="870" y="960" as="targetPoint" />
            <Array as="points">
              <mxPoint x="870" y="918" />
            </Array>
          </mxGeometry>
        </mxCell>
        <mxCell id="CywS-Gf4T-sr7dHhk5kF-141" value="imc &amp;lt; 30" style="rhombus;whiteSpace=wrap;html=1;" parent="1" vertex="1">
          <mxGeometry x="940" y="890" width="140" height="60" as="geometry" />
        </mxCell>
        <mxCell id="CywS-Gf4T-sr7dHhk5kF-142" value="&lt;b&gt;SIM&lt;/b&gt;" style="text;html=1;align=center;verticalAlign=middle;whiteSpace=wrap;rounded=0;" parent="1" vertex="1">
          <mxGeometry x="895" y="900" width="60" height="30" as="geometry" />
        </mxCell>
        <mxCell id="CywS-Gf4T-sr7dHhk5kF-143" value="&lt;b&gt;NÃO&lt;/b&gt;" style="text;html=1;align=center;verticalAlign=middle;whiteSpace=wrap;rounded=0;" parent="1" vertex="1">
          <mxGeometry x="1010" y="940" width="60" height="30" as="geometry" />
        </mxCell>
        <mxCell id="CywS-Gf4T-sr7dHhk5kF-144" value="" style="endArrow=classic;html=1;rounded=0;exitX=1;exitY=0.5;exitDx=0;exitDy=0;entryX=0.5;entryY=0;entryDx=0;entryDy=0;" parent="1" target="CywS-Gf4T-sr7dHhk5kF-147" edge="1">
          <mxGeometry width="50" height="50" relative="1" as="geometry">
            <mxPoint x="1075" y="920" as="sourcePoint" />
            <mxPoint x="1095" y="970" as="targetPoint" />
            <Array as="points">
              <mxPoint x="1075" y="970" />
              <mxPoint x="1015" y="970" />
            </Array>
          </mxGeometry>
        </mxCell>
        <mxCell id="CywS-Gf4T-sr7dHhk5kF-145" value="Seu estado é de sobrepesol\nPrecisa rever sua alimentação." style="shape=display;whiteSpace=wrap;html=1;" parent="1" vertex="1">
          <mxGeometry x="690" y="960" width="260" height="60" as="geometry" />
        </mxCell>
        <mxCell id="CywS-Gf4T-sr7dHhk5kF-146" value="" style="endArrow=classic;html=1;rounded=0;" parent="1" edge="1">
          <mxGeometry width="50" height="50" relative="1" as="geometry">
            <mxPoint x="950" y="1038" as="sourcePoint" />
            <mxPoint x="875" y="1080" as="targetPoint" />
            <Array as="points">
              <mxPoint x="875" y="1038" />
            </Array>
          </mxGeometry>
        </mxCell>
        <mxCell id="CywS-Gf4T-sr7dHhk5kF-147" value="imc &amp;lt; 35" style="rhombus;whiteSpace=wrap;html=1;" parent="1" vertex="1">
          <mxGeometry x="945" y="1010" width="140" height="60" as="geometry" />
        </mxCell>
        <mxCell id="CywS-Gf4T-sr7dHhk5kF-148" value="&lt;b&gt;SIM&lt;/b&gt;" style="text;html=1;align=center;verticalAlign=middle;whiteSpace=wrap;rounded=0;" parent="1" vertex="1">
          <mxGeometry x="900" y="1020" width="60" height="30" as="geometry" />
        </mxCell>
        <mxCell id="CywS-Gf4T-sr7dHhk5kF-149" value="&lt;b&gt;NÃO&lt;/b&gt;" style="text;html=1;align=center;verticalAlign=middle;whiteSpace=wrap;rounded=0;" parent="1" vertex="1">
          <mxGeometry x="1015" y="1070" width="60" height="30" as="geometry" />
        </mxCell>
        <mxCell id="CywS-Gf4T-sr7dHhk5kF-150" value="" style="endArrow=classic;html=1;rounded=0;exitX=1;exitY=0.5;exitDx=0;exitDy=0;entryX=0.5;entryY=0;entryDx=0;entryDy=0;" parent="1" target="CywS-Gf4T-sr7dHhk5kF-152" edge="1">
          <mxGeometry width="50" height="50" relative="1" as="geometry">
            <mxPoint x="1080" y="1040" as="sourcePoint" />
            <mxPoint x="1100" y="1090" as="targetPoint" />
            <Array as="points">
              <mxPoint x="1080" y="1100" />
              <mxPoint x="1005" y="1100" />
            </Array>
          </mxGeometry>
        </mxCell>
        <mxCell id="CywS-Gf4T-sr7dHhk5kF-151" value="" style="endArrow=classic;html=1;rounded=0;" parent="1" edge="1">
          <mxGeometry width="50" height="50" relative="1" as="geometry">
            <mxPoint x="940" y="1158" as="sourcePoint" />
            <mxPoint x="865" y="1200" as="targetPoint" />
            <Array as="points">
              <mxPoint x="865" y="1158" />
            </Array>
          </mxGeometry>
        </mxCell>
        <mxCell id="CywS-Gf4T-sr7dHhk5kF-152" value="imc &amp;lt; 40" style="rhombus;whiteSpace=wrap;html=1;" parent="1" vertex="1">
          <mxGeometry x="935" y="1130" width="140" height="60" as="geometry" />
        </mxCell>
        <mxCell id="CywS-Gf4T-sr7dHhk5kF-153" value="&lt;b&gt;SIM&lt;/b&gt;" style="text;html=1;align=center;verticalAlign=middle;whiteSpace=wrap;rounded=0;" parent="1" vertex="1">
          <mxGeometry x="890" y="1140" width="60" height="30" as="geometry" />
        </mxCell>
        <mxCell id="CywS-Gf4T-sr7dHhk5kF-154" value="&lt;b&gt;NÃO&lt;/b&gt;" style="text;html=1;align=center;verticalAlign=middle;whiteSpace=wrap;rounded=0;" parent="1" vertex="1">
          <mxGeometry x="1025" y="1290" width="60" height="30" as="geometry" />
        </mxCell>
        <mxCell id="CywS-Gf4T-sr7dHhk5kF-155" value="" style="endArrow=classic;html=1;rounded=0;exitX=1;exitY=0.5;exitDx=0;exitDy=0;entryX=1;entryY=0.5;entryDx=0;entryDy=0;entryPerimeter=0;" parent="1" target="CywS-Gf4T-sr7dHhk5kF-163" edge="1">
          <mxGeometry width="50" height="50" relative="1" as="geometry">
            <mxPoint x="1070" y="1160" as="sourcePoint" />
            <mxPoint x="1090" y="1210" as="targetPoint" />
            <Array as="points">
              <mxPoint x="1090" y="1160" />
              <mxPoint x="1090" y="1320" />
            </Array>
          </mxGeometry>
        </mxCell>
        <mxCell id="CywS-Gf4T-sr7dHhk5kF-161" value="Seu estado é de obesidade grau I\nProcure um médico ou nutricionista." style="shape=display;whiteSpace=wrap;html=1;" parent="1" vertex="1">
          <mxGeometry x="690" y="1080" width="260" height="60" as="geometry" />
        </mxCell>
        <mxCell id="CywS-Gf4T-sr7dHhk5kF-162" value="Seu estado é de obesidade grau II (severa)\nProcure um médico ou nutricionista." style="shape=display;whiteSpace=wrap;html=1;" parent="1" vertex="1">
          <mxGeometry x="690" y="1200" width="260" height="60" as="geometry" />
        </mxCell>
        <mxCell id="CywS-Gf4T-sr7dHhk5kF-163" value="Seu estado é de obesidade grau III (mórbida)\nProcure um médico ou nutricionista." style="shape=display;whiteSpace=wrap;html=1;" parent="1" vertex="1">
          <mxGeometry x="765" y="1290" width="260" height="60" as="geometry" />
        </mxCell>
        <mxCell id="CywS-Gf4T-sr7dHhk5kF-166" value="" style="endArrow=classic;html=1;rounded=0;exitX=1;exitY=0.5;exitDx=0;exitDy=0;entryX=0.5;entryY=0;entryDx=0;entryDy=0;" parent="1" edge="1">
          <mxGeometry width="50" height="50" relative="1" as="geometry">
            <mxPoint x="1070" y="560" as="sourcePoint" />
            <mxPoint x="1010" y="650" as="targetPoint" />
            <Array as="points">
              <mxPoint x="1070" y="620" />
              <mxPoint x="1010" y="620" />
            </Array>
          </mxGeometry>
        </mxCell>
        <mxCell id="CywS-Gf4T-sr7dHhk5kF-167" value="" style="endArrow=classic;html=1;rounded=0;exitX=1;exitY=0.5;exitDx=0;exitDy=0;entryX=0.5;entryY=0;entryDx=0;entryDy=0;" parent="1" source="CywS-Gf4T-sr7dHhk5kF-128" edge="1">
          <mxGeometry width="50" height="50" relative="1" as="geometry">
            <mxPoint x="1070" y="680" as="sourcePoint" />
            <mxPoint x="1010" y="770" as="targetPoint" />
            <Array as="points">
              <mxPoint x="1080" y="740" />
              <mxPoint x="1010" y="740" />
            </Array>
          </mxGeometry>
        </mxCell>
        <mxCell id="CywS-Gf4T-sr7dHhk5kF-168" value="&lt;b&gt;NÃO&lt;/b&gt;" style="text;html=1;align=center;verticalAlign=middle;whiteSpace=wrap;rounded=0;" parent="1" vertex="1">
          <mxGeometry x="1010" y="710" width="60" height="30" as="geometry" />
        </mxCell>
        <mxCell id="CywS-Gf4T-sr7dHhk5kF-170" value="" style="ellipse;whiteSpace=wrap;html=1;aspect=fixed;strokeColor=default;align=center;verticalAlign=middle;fontFamily=Helvetica;fontSize=12;fontColor=default;fillColor=default;strokeWidth=2;" parent="1" vertex="1">
          <mxGeometry x="680" y="1330" width="40" height="40" as="geometry" />
        </mxCell>
        <mxCell id="CywS-Gf4T-sr7dHhk5kF-176" value="" style="endArrow=classic;html=1;rounded=0;exitX=0;exitY=0.5;exitDx=0;exitDy=0;exitPerimeter=0;entryX=0;entryY=0.5;entryDx=0;entryDy=0;" parent="1" source="CywS-Gf4T-sr7dHhk5kF-103" target="CywS-Gf4T-sr7dHhk5kF-170" edge="1">
          <mxGeometry width="50" height="50" relative="1" as="geometry">
            <mxPoint x="960" y="1260" as="sourcePoint" />
            <mxPoint x="1010" y="1210" as="targetPoint" />
            <Array as="points">
              <mxPoint x="660" y="1350" />
            </Array>
          </mxGeometry>
        </mxCell>
        <mxCell id="CywS-Gf4T-sr7dHhk5kF-181" value="" style="endArrow=none;html=1;rounded=0;exitX=0;exitY=0.5;exitDx=0;exitDy=0;exitPerimeter=0;" parent="1" source="CywS-Gf4T-sr7dHhk5kF-161" edge="1">
          <mxGeometry width="50" height="50" relative="1" as="geometry">
            <mxPoint x="960" y="820" as="sourcePoint" />
            <mxPoint x="660" y="1110" as="targetPoint" />
          </mxGeometry>
        </mxCell>
        <mxCell id="CywS-Gf4T-sr7dHhk5kF-183" value="" style="endArrow=none;html=1;rounded=0;exitX=0;exitY=0.5;exitDx=0;exitDy=0;exitPerimeter=0;" parent="1" source="CywS-Gf4T-sr7dHhk5kF-145" edge="1">
          <mxGeometry width="50" height="50" relative="1" as="geometry">
            <mxPoint x="700" y="1120" as="sourcePoint" />
            <mxPoint x="660" y="990" as="targetPoint" />
          </mxGeometry>
        </mxCell>
        <mxCell id="CywS-Gf4T-sr7dHhk5kF-184" value="" style="endArrow=none;html=1;rounded=0;exitX=0;exitY=0.5;exitDx=0;exitDy=0;exitPerimeter=0;" parent="1" source="CywS-Gf4T-sr7dHhk5kF-138" edge="1">
          <mxGeometry width="50" height="50" relative="1" as="geometry">
            <mxPoint x="960" y="880" as="sourcePoint" />
            <mxPoint x="660" y="870" as="targetPoint" />
          </mxGeometry>
        </mxCell>
        <mxCell id="CywS-Gf4T-sr7dHhk5kF-185" value="" style="endArrow=none;html=1;rounded=0;exitX=0;exitY=0.5;exitDx=0;exitDy=0;exitPerimeter=0;" parent="1" source="CywS-Gf4T-sr7dHhk5kF-132" edge="1">
          <mxGeometry width="50" height="50" relative="1" as="geometry">
            <mxPoint x="960" y="880" as="sourcePoint" />
            <mxPoint x="660" y="750" as="targetPoint" />
          </mxGeometry>
        </mxCell>
        <mxCell id="CywS-Gf4T-sr7dHhk5kF-186" value="" style="endArrow=none;html=1;rounded=0;entryX=0;entryY=0.5;entryDx=0;entryDy=0;entryPerimeter=0;" parent="1" target="CywS-Gf4T-sr7dHhk5kF-118" edge="1">
          <mxGeometry width="50" height="50" relative="1" as="geometry">
            <mxPoint x="660" y="630" as="sourcePoint" />
            <mxPoint x="1010" y="830" as="targetPoint" />
          </mxGeometry>
        </mxCell>
        <mxCell id="CywS-Gf4T-sr7dHhk5kF-187" value="" style="endArrow=none;html=1;rounded=0;entryX=0;entryY=0.5;entryDx=0;entryDy=0;entryPerimeter=0;" parent="1" target="CywS-Gf4T-sr7dHhk5kF-162" edge="1">
          <mxGeometry width="50" height="50" relative="1" as="geometry">
            <mxPoint x="660" y="1230" as="sourcePoint" />
            <mxPoint x="1010" y="830" as="targetPoint" />
          </mxGeometry>
        </mxCell>
        <mxCell id="CywS-Gf4T-sr7dHhk5kF-188" value="" style="endArrow=none;html=1;rounded=0;entryX=0;entryY=0.5;entryDx=0;entryDy=0;entryPerimeter=0;" parent="1" target="CywS-Gf4T-sr7dHhk5kF-163" edge="1">
          <mxGeometry width="50" height="50" relative="1" as="geometry">
            <mxPoint x="660" y="1320" as="sourcePoint" />
            <mxPoint x="1010" y="1080" as="targetPoint" />
          </mxGeometry>
        </mxCell>
        <mxCell id="CywS-Gf4T-sr7dHhk5kF-189" value="8. Peça ao usuário para digitar um número e imprima&lt;br/&gt;se é positivo ou negativo." style="text;html=1;align=left;verticalAlign=middle;whiteSpace=wrap;rounded=0;" parent="1" vertex="1">
          <mxGeometry x="1130" y="30" width="320" height="30" as="geometry" />
        </mxCell>
        <mxCell id="CywS-Gf4T-sr7dHhk5kF-191" value="" style="line;strokeWidth=4;direction=south;html=1;perimeter=backbonePerimeter;points=[];outlineConnect=0;" parent="1" vertex="1">
          <mxGeometry x="1100" y="30" width="10" height="1650" as="geometry" />
        </mxCell>
        <mxCell id="CywS-Gf4T-sr7dHhk5kF-192" value="Insira um número:" style="shape=parallelogram;perimeter=parallelogramPerimeter;whiteSpace=wrap;html=1;fixedSize=1;" parent="1" vertex="1">
          <mxGeometry x="1190" y="160" width="230" height="40" as="geometry" />
        </mxCell>
        <mxCell id="CywS-Gf4T-sr7dHhk5kF-195" value="" style="endArrow=classic;html=1;rounded=0;exitX=0.5;exitY=1;exitDx=0;exitDy=0;entryX=0.5;entryY=0;entryDx=0;entryDy=0;" parent="1" edge="1">
          <mxGeometry width="50" height="50" relative="1" as="geometry">
            <mxPoint x="1304.5" y="120" as="sourcePoint" />
            <mxPoint x="1304.5" y="160" as="targetPoint" />
          </mxGeometry>
        </mxCell>
        <mxCell id="CywS-Gf4T-sr7dHhk5kF-196" value="" style="endArrow=classic;html=1;rounded=0;exitX=0.5;exitY=1;exitDx=0;exitDy=0;entryX=0.5;entryY=0;entryDx=0;entryDy=0;" parent="1" edge="1">
          <mxGeometry width="50" height="50" relative="1" as="geometry">
            <mxPoint x="1304.5" y="200" as="sourcePoint" />
            <mxPoint x="1304.5" y="240" as="targetPoint" />
          </mxGeometry>
        </mxCell>
        <mxCell id="CywS-Gf4T-sr7dHhk5kF-199" value="" style="ellipse;whiteSpace=wrap;html=1;aspect=fixed;strokeColor=default;align=center;verticalAlign=middle;fontFamily=Helvetica;fontSize=12;fontColor=default;fillColor=default;" parent="1" vertex="1">
          <mxGeometry x="1285" y="80" width="40" height="40" as="geometry" />
        </mxCell>
        <mxCell id="CywS-Gf4T-sr7dHhk5kF-200" value="" style="endArrow=classic;html=1;rounded=0;exitX=0;exitY=0.5;exitDx=0;exitDy=0;entryX=0;entryY=0.5;entryDx=0;entryDy=0;entryPerimeter=0;" parent="1" source="CywS-Gf4T-sr7dHhk5kF-201" target="CywS-Gf4T-sr7dHhk5kF-205" edge="1">
          <mxGeometry width="50" height="50" relative="1" as="geometry">
            <mxPoint x="1179.98" y="440.01" as="sourcePoint" />
            <mxPoint x="1180" y="440" as="targetPoint" />
            <Array as="points">
              <mxPoint x="1150" y="280" />
            </Array>
          </mxGeometry>
        </mxCell>
        <mxCell id="CywS-Gf4T-sr7dHhk5kF-201" value="numero &amp;lt; 0" style="rhombus;whiteSpace=wrap;html=1;" parent="1" vertex="1">
          <mxGeometry x="1170" y="240" width="270" height="80" as="geometry" />
        </mxCell>
        <mxCell id="CywS-Gf4T-sr7dHhk5kF-202" value="" style="endArrow=classic;html=1;rounded=0;exitX=1;exitY=0.5;exitDx=0;exitDy=0;entryX=1;entryY=0.5;entryDx=0;entryDy=0;entryPerimeter=0;" parent="1" source="CywS-Gf4T-sr7dHhk5kF-201" target="CywS-Gf4T-sr7dHhk5kF-206" edge="1">
          <mxGeometry width="50" height="50" relative="1" as="geometry">
            <mxPoint x="1460" y="410" as="sourcePoint" />
            <mxPoint x="1360" y="440" as="targetPoint" />
            <Array as="points">
              <mxPoint x="1440" y="450" />
            </Array>
          </mxGeometry>
        </mxCell>
        <mxCell id="CywS-Gf4T-sr7dHhk5kF-203" value="&lt;b&gt;SIM&lt;/b&gt;" style="text;html=1;align=center;verticalAlign=middle;whiteSpace=wrap;rounded=0;" parent="1" vertex="1">
          <mxGeometry x="1140" y="260" width="60" height="30" as="geometry" />
        </mxCell>
        <mxCell id="CywS-Gf4T-sr7dHhk5kF-204" value="&lt;b&gt;NÃO&lt;/b&gt;" style="text;html=1;align=center;verticalAlign=middle;whiteSpace=wrap;rounded=0;" parent="1" vertex="1">
          <mxGeometry x="1400" y="250" width="60" height="30" as="geometry" />
        </mxCell>
        <mxCell id="CywS-Gf4T-sr7dHhk5kF-205" value="{numero} é um número negativo." style="shape=display;whiteSpace=wrap;html=1;" parent="1" vertex="1">
          <mxGeometry x="1150" y="330" width="170" height="60" as="geometry" />
        </mxCell>
        <mxCell id="CywS-Gf4T-sr7dHhk5kF-206" value="{numero} é um número positivo." style="shape=display;whiteSpace=wrap;html=1;" parent="1" vertex="1">
          <mxGeometry x="1250" y="420" width="170" height="60" as="geometry" />
        </mxCell>
        <mxCell id="CywS-Gf4T-sr7dHhk5kF-207" value="" style="line;strokeWidth=4;direction=south;html=1;perimeter=backbonePerimeter;points=[];outlineConnect=0;" parent="1" vertex="1">
          <mxGeometry x="1460" y="30" width="10" height="1650" as="geometry" />
        </mxCell>
        <mxCell id="CywS-Gf4T-sr7dHhk5kF-210" value="" style="ellipse;whiteSpace=wrap;html=1;aspect=fixed;strokeColor=default;align=center;verticalAlign=middle;fontFamily=Helvetica;fontSize=12;fontColor=default;fillColor=default;strokeWidth=2;" parent="1" vertex="1">
          <mxGeometry x="1160" y="430" width="40" height="40" as="geometry" />
        </mxCell>
        <mxCell id="CywS-Gf4T-sr7dHhk5kF-212" value="" style="endArrow=classic;html=1;rounded=0;entryX=1;entryY=0.5;entryDx=0;entryDy=0;exitX=0;exitY=0.5;exitDx=0;exitDy=0;exitPerimeter=0;" parent="1" source="CywS-Gf4T-sr7dHhk5kF-206" target="CywS-Gf4T-sr7dHhk5kF-210" edge="1">
          <mxGeometry width="50" height="50" relative="1" as="geometry">
            <mxPoint x="1150" y="560" as="sourcePoint" />
            <mxPoint x="1200" y="510" as="targetPoint" />
          </mxGeometry>
        </mxCell>
        <mxCell id="CywS-Gf4T-sr7dHhk5kF-213" value="" style="endArrow=classic;html=1;rounded=0;entryX=0.5;entryY=0;entryDx=0;entryDy=0;exitX=0;exitY=0;exitDx=42.5;exitDy=60;exitPerimeter=0;" parent="1" source="CywS-Gf4T-sr7dHhk5kF-205" target="CywS-Gf4T-sr7dHhk5kF-210" edge="1">
          <mxGeometry width="50" height="50" relative="1" as="geometry">
            <mxPoint x="1260" y="460" as="sourcePoint" />
            <mxPoint x="1210" y="460" as="targetPoint" />
          </mxGeometry>
        </mxCell>
        <mxCell id="CywS-Gf4T-sr7dHhk5kF-214" value="9. Solicite um valor em reais e imprima o equivalente&lt;br/&gt;em dólares (considere a cotação fixa)." style="text;html=1;align=left;verticalAlign=middle;whiteSpace=wrap;rounded=0;" parent="1" vertex="1">
          <mxGeometry x="1130" y="510" width="320" height="30" as="geometry" />
        </mxCell>
        <mxCell id="CywS-Gf4T-sr7dHhk5kF-215" value="" style="line;strokeWidth=2;html=1;" parent="1" vertex="1">
          <mxGeometry x="1140" y="495" width="280" height="10" as="geometry" />
        </mxCell>
        <mxCell id="CywS-Gf4T-sr7dHhk5kF-216" value="" style="ellipse;whiteSpace=wrap;html=1;aspect=fixed;strokeColor=default;align=center;verticalAlign=middle;fontFamily=Helvetica;fontSize=12;fontColor=default;fillColor=default;strokeWidth=2;" parent="1" vertex="1">
          <mxGeometry x="460" y="1400" width="40" height="40" as="geometry" />
        </mxCell>
        <mxCell id="CywS-Gf4T-sr7dHhk5kF-217" value="" style="edgeStyle=orthogonalEdgeStyle;rounded=0;orthogonalLoop=1;jettySize=auto;html=1;" parent="1" source="CywS-Gf4T-sr7dHhk5kF-218" target="CywS-Gf4T-sr7dHhk5kF-219" edge="1">
          <mxGeometry relative="1" as="geometry" />
        </mxCell>
        <mxCell id="CywS-Gf4T-sr7dHhk5kF-218" value="Insira o primeiro número:" style="shape=parallelogram;perimeter=parallelogramPerimeter;whiteSpace=wrap;html=1;fixedSize=1;" parent="1" vertex="1">
          <mxGeometry x="365" y="1080" width="230" height="40" as="geometry" />
        </mxCell>
        <mxCell id="CywS-Gf4T-sr7dHhk5kF-219" value="Insira o segundo número:" style="shape=parallelogram;perimeter=parallelogramPerimeter;whiteSpace=wrap;html=1;fixedSize=1;" parent="1" vertex="1">
          <mxGeometry x="365" y="1160" width="230" height="40" as="geometry" />
        </mxCell>
        <mxCell id="CywS-Gf4T-sr7dHhk5kF-220" value="multiplicacaoNumeros = numero1 * numero2" style="rounded=0;whiteSpace=wrap;html=1;" parent="1" vertex="1">
          <mxGeometry x="380" y="1240" width="200" height="40" as="geometry" />
        </mxCell>
        <mxCell id="CywS-Gf4T-sr7dHhk5kF-221" value="Resultado da multiplicação: ____." style="shape=display;whiteSpace=wrap;html=1;" parent="1" vertex="1">
          <mxGeometry x="385" y="1320" width="190" height="40" as="geometry" />
        </mxCell>
        <mxCell id="CywS-Gf4T-sr7dHhk5kF-222" value="" style="endArrow=classic;html=1;rounded=0;exitX=0.5;exitY=1;exitDx=0;exitDy=0;entryX=0.5;entryY=0;entryDx=0;entryDy=0;" parent="1" edge="1">
          <mxGeometry width="50" height="50" relative="1" as="geometry">
            <mxPoint x="479.5" y="1040" as="sourcePoint" />
            <mxPoint x="479.5" y="1080" as="targetPoint" />
          </mxGeometry>
        </mxCell>
        <mxCell id="CywS-Gf4T-sr7dHhk5kF-223" value="" style="endArrow=classic;html=1;rounded=0;exitX=0.5;exitY=1;exitDx=0;exitDy=0;entryX=0.5;entryY=0;entryDx=0;entryDy=0;" parent="1" edge="1">
          <mxGeometry width="50" height="50" relative="1" as="geometry">
            <mxPoint x="479.5" y="1120" as="sourcePoint" />
            <mxPoint x="479.5" y="1160" as="targetPoint" />
          </mxGeometry>
        </mxCell>
        <mxCell id="CywS-Gf4T-sr7dHhk5kF-224" value="" style="endArrow=classic;html=1;rounded=0;exitX=0.5;exitY=1;exitDx=0;exitDy=0;entryX=0.5;entryY=0;entryDx=0;entryDy=0;" parent="1" edge="1">
          <mxGeometry width="50" height="50" relative="1" as="geometry">
            <mxPoint x="479.5" y="1200" as="sourcePoint" />
            <mxPoint x="479.5" y="1240" as="targetPoint" />
          </mxGeometry>
        </mxCell>
        <mxCell id="CywS-Gf4T-sr7dHhk5kF-225" value="" style="endArrow=classic;html=1;rounded=0;exitX=0.5;exitY=1;exitDx=0;exitDy=0;entryX=0.5;entryY=0;entryDx=0;entryDy=0;" parent="1" edge="1">
          <mxGeometry width="50" height="50" relative="1" as="geometry">
            <mxPoint x="479.5" y="1280" as="sourcePoint" />
            <mxPoint x="479.5" y="1320" as="targetPoint" />
          </mxGeometry>
        </mxCell>
        <mxCell id="CywS-Gf4T-sr7dHhk5kF-226" value="" style="endArrow=classic;html=1;rounded=0;exitX=0.5;exitY=1;exitDx=0;exitDy=0;entryX=0.5;entryY=0;entryDx=0;entryDy=0;" parent="1" edge="1">
          <mxGeometry width="50" height="50" relative="1" as="geometry">
            <mxPoint x="479.5" y="1360" as="sourcePoint" />
            <mxPoint x="479.5" y="1400" as="targetPoint" />
          </mxGeometry>
        </mxCell>
        <mxCell id="CywS-Gf4T-sr7dHhk5kF-227" value="" style="ellipse;whiteSpace=wrap;html=1;aspect=fixed;strokeColor=default;align=center;verticalAlign=middle;fontFamily=Helvetica;fontSize=12;fontColor=default;fillColor=default;" parent="1" vertex="1">
          <mxGeometry x="460" y="1000" width="40" height="40" as="geometry" />
        </mxCell>
        <mxCell id="CywS-Gf4T-sr7dHhk5kF-228" value="" style="ellipse;whiteSpace=wrap;html=1;aspect=fixed;strokeColor=default;align=center;verticalAlign=middle;fontFamily=Helvetica;fontSize=12;fontColor=default;fillColor=default;strokeWidth=2;" parent="1" vertex="1">
          <mxGeometry x="1255" y="880" width="40" height="40" as="geometry" />
        </mxCell>
        <mxCell id="CywS-Gf4T-sr7dHhk5kF-229" value="" style="edgeStyle=orthogonalEdgeStyle;rounded=0;orthogonalLoop=1;jettySize=auto;html=1;" parent="1" source="CywS-Gf4T-sr7dHhk5kF-230" edge="1">
          <mxGeometry relative="1" as="geometry">
            <mxPoint x="1274.9999999999998" y="720" as="targetPoint" />
          </mxGeometry>
        </mxCell>
        <mxCell id="CywS-Gf4T-sr7dHhk5kF-230" value="Insira o valor em Reais:" style="shape=parallelogram;perimeter=parallelogramPerimeter;whiteSpace=wrap;html=1;fixedSize=1;" parent="1" vertex="1">
          <mxGeometry x="1160" y="640" width="230" height="40" as="geometry" />
        </mxCell>
        <mxCell id="CywS-Gf4T-sr7dHhk5kF-232" value="valorDolar = valorReal /&amp;nbsp;5,83150" style="rounded=0;whiteSpace=wrap;html=1;" parent="1" vertex="1">
          <mxGeometry x="1175" y="720" width="200" height="40" as="geometry" />
        </mxCell>
        <mxCell id="CywS-Gf4T-sr7dHhk5kF-233" value="Você possui {valorDolar} dolares." style="shape=display;whiteSpace=wrap;html=1;" parent="1" vertex="1">
          <mxGeometry x="1175" y="800" width="190" height="40" as="geometry" />
        </mxCell>
        <mxCell id="CywS-Gf4T-sr7dHhk5kF-234" value="" style="endArrow=classic;html=1;rounded=0;exitX=0.5;exitY=1;exitDx=0;exitDy=0;entryX=0.5;entryY=0;entryDx=0;entryDy=0;" parent="1" edge="1">
          <mxGeometry width="50" height="50" relative="1" as="geometry">
            <mxPoint x="1274.5" y="600" as="sourcePoint" />
            <mxPoint x="1274.5" y="640" as="targetPoint" />
          </mxGeometry>
        </mxCell>
        <mxCell id="CywS-Gf4T-sr7dHhk5kF-235" value="" style="endArrow=classic;html=1;rounded=0;exitX=0.5;exitY=1;exitDx=0;exitDy=0;entryX=0.5;entryY=0;entryDx=0;entryDy=0;" parent="1" edge="1">
          <mxGeometry width="50" height="50" relative="1" as="geometry">
            <mxPoint x="1274.5" y="680" as="sourcePoint" />
            <mxPoint x="1274.5" y="720" as="targetPoint" />
          </mxGeometry>
        </mxCell>
        <mxCell id="CywS-Gf4T-sr7dHhk5kF-237" value="" style="endArrow=classic;html=1;rounded=0;exitX=0.5;exitY=1;exitDx=0;exitDy=0;entryX=0.5;entryY=0;entryDx=0;entryDy=0;" parent="1" edge="1">
          <mxGeometry width="50" height="50" relative="1" as="geometry">
            <mxPoint x="1274.52" y="760" as="sourcePoint" />
            <mxPoint x="1274.52" y="800" as="targetPoint" />
          </mxGeometry>
        </mxCell>
        <mxCell id="CywS-Gf4T-sr7dHhk5kF-238" value="" style="endArrow=classic;html=1;rounded=0;exitX=0.5;exitY=1;exitDx=0;exitDy=0;entryX=0.5;entryY=0;entryDx=0;entryDy=0;" parent="1" edge="1">
          <mxGeometry width="50" height="50" relative="1" as="geometry">
            <mxPoint x="1274.52" y="840" as="sourcePoint" />
            <mxPoint x="1274.52" y="880" as="targetPoint" />
          </mxGeometry>
        </mxCell>
        <mxCell id="CywS-Gf4T-sr7dHhk5kF-239" value="" style="ellipse;whiteSpace=wrap;html=1;aspect=fixed;strokeColor=default;align=center;verticalAlign=middle;fontFamily=Helvetica;fontSize=12;fontColor=default;fillColor=default;" parent="1" vertex="1">
          <mxGeometry x="1255" y="560" width="40" height="40" as="geometry" />
        </mxCell>
        <mxCell id="sR_lok7pmIx3FLaMIanh-1" value="&lt;div&gt;10. Peça dois números ao usuário e imprima o resultado da divisão do primeiro pelo segundo.&lt;/div&gt;&lt;div&gt;&lt;br&gt;&lt;/div&gt;" style="text;html=1;align=left;verticalAlign=middle;whiteSpace=wrap;rounded=0;" vertex="1" parent="1">
          <mxGeometry x="1120" y="960" width="320" height="30" as="geometry" />
        </mxCell>
        <mxCell id="sR_lok7pmIx3FLaMIanh-2" value="" style="line;strokeWidth=2;html=1;" vertex="1" parent="1">
          <mxGeometry x="1140" y="932.5" width="280" height="10" as="geometry" />
        </mxCell>
        <mxCell id="sR_lok7pmIx3FLaMIanh-3" value="" style="ellipse;whiteSpace=wrap;html=1;aspect=fixed;strokeColor=default;align=center;verticalAlign=middle;fontFamily=Helvetica;fontSize=12;fontColor=default;fillColor=default;strokeWidth=2;" vertex="1" parent="1">
          <mxGeometry x="1265" y="1410" width="40" height="40" as="geometry" />
        </mxCell>
        <mxCell id="sR_lok7pmIx3FLaMIanh-4" value="" style="edgeStyle=orthogonalEdgeStyle;rounded=0;orthogonalLoop=1;jettySize=auto;html=1;" edge="1" source="sR_lok7pmIx3FLaMIanh-5" target="sR_lok7pmIx3FLaMIanh-6" parent="1">
          <mxGeometry relative="1" as="geometry" />
        </mxCell>
        <mxCell id="sR_lok7pmIx3FLaMIanh-5" value="Insira o primeiro número:" style="shape=parallelogram;perimeter=parallelogramPerimeter;whiteSpace=wrap;html=1;fixedSize=1;" vertex="1" parent="1">
          <mxGeometry x="1170" y="1090" width="230" height="40" as="geometry" />
        </mxCell>
        <mxCell id="sR_lok7pmIx3FLaMIanh-6" value="Insira o segundo número:" style="shape=parallelogram;perimeter=parallelogramPerimeter;whiteSpace=wrap;html=1;fixedSize=1;" vertex="1" parent="1">
          <mxGeometry x="1170" y="1170" width="230" height="40" as="geometry" />
        </mxCell>
        <mxCell id="sR_lok7pmIx3FLaMIanh-7" value="multiplicacaoNumeros = numero1 * numero2" style="rounded=0;whiteSpace=wrap;html=1;" vertex="1" parent="1">
          <mxGeometry x="1185" y="1250" width="200" height="40" as="geometry" />
        </mxCell>
        <mxCell id="sR_lok7pmIx3FLaMIanh-8" value="Resultado da multiplicação: ____." style="shape=display;whiteSpace=wrap;html=1;" vertex="1" parent="1">
          <mxGeometry x="1190" y="1330" width="190" height="40" as="geometry" />
        </mxCell>
        <mxCell id="sR_lok7pmIx3FLaMIanh-9" value="" style="endArrow=classic;html=1;rounded=0;exitX=0.5;exitY=1;exitDx=0;exitDy=0;entryX=0.5;entryY=0;entryDx=0;entryDy=0;" edge="1" parent="1">
          <mxGeometry width="50" height="50" relative="1" as="geometry">
            <mxPoint x="1284.5" y="1050" as="sourcePoint" />
            <mxPoint x="1284.5" y="1090" as="targetPoint" />
          </mxGeometry>
        </mxCell>
        <mxCell id="sR_lok7pmIx3FLaMIanh-10" value="" style="endArrow=classic;html=1;rounded=0;exitX=0.5;exitY=1;exitDx=0;exitDy=0;entryX=0.5;entryY=0;entryDx=0;entryDy=0;" edge="1" parent="1">
          <mxGeometry width="50" height="50" relative="1" as="geometry">
            <mxPoint x="1284.5" y="1130" as="sourcePoint" />
            <mxPoint x="1284.5" y="1170" as="targetPoint" />
          </mxGeometry>
        </mxCell>
        <mxCell id="sR_lok7pmIx3FLaMIanh-11" value="" style="endArrow=classic;html=1;rounded=0;exitX=0.5;exitY=1;exitDx=0;exitDy=0;entryX=0.5;entryY=0;entryDx=0;entryDy=0;" edge="1" parent="1">
          <mxGeometry width="50" height="50" relative="1" as="geometry">
            <mxPoint x="1284.5" y="1210" as="sourcePoint" />
            <mxPoint x="1284.5" y="1250" as="targetPoint" />
          </mxGeometry>
        </mxCell>
        <mxCell id="sR_lok7pmIx3FLaMIanh-12" value="" style="endArrow=classic;html=1;rounded=0;exitX=0.5;exitY=1;exitDx=0;exitDy=0;entryX=0.5;entryY=0;entryDx=0;entryDy=0;" edge="1" parent="1">
          <mxGeometry width="50" height="50" relative="1" as="geometry">
            <mxPoint x="1284.5" y="1290" as="sourcePoint" />
            <mxPoint x="1284.5" y="1330" as="targetPoint" />
          </mxGeometry>
        </mxCell>
        <mxCell id="sR_lok7pmIx3FLaMIanh-13" value="" style="endArrow=classic;html=1;rounded=0;exitX=0.5;exitY=1;exitDx=0;exitDy=0;entryX=0.5;entryY=0;entryDx=0;entryDy=0;" edge="1" parent="1">
          <mxGeometry width="50" height="50" relative="1" as="geometry">
            <mxPoint x="1284.5" y="1370" as="sourcePoint" />
            <mxPoint x="1284.5" y="1410" as="targetPoint" />
          </mxGeometry>
        </mxCell>
        <mxCell id="sR_lok7pmIx3FLaMIanh-14" value="" style="ellipse;whiteSpace=wrap;html=1;aspect=fixed;strokeColor=default;align=center;verticalAlign=middle;fontFamily=Helvetica;fontSize=12;fontColor=default;fillColor=default;" vertex="1" parent="1">
          <mxGeometry x="1265" y="1010" width="40" height="40" as="geometry" />
        </mxCell>
        <mxCell id="sR_lok7pmIx3FLaMIanh-15" value="" style="ellipse;whiteSpace=wrap;html=1;aspect=fixed;strokeColor=default;align=center;verticalAlign=middle;fontFamily=Helvetica;fontSize=12;fontColor=default;fillColor=default;strokeWidth=2;" vertex="1" parent="1">
          <mxGeometry x="1265" y="1410" width="40" height="40" as="geometry" />
        </mxCell>
        <mxCell id="sR_lok7pmIx3FLaMIanh-16" value="" style="edgeStyle=orthogonalEdgeStyle;rounded=0;orthogonalLoop=1;jettySize=auto;html=1;" edge="1" source="sR_lok7pmIx3FLaMIanh-17" target="sR_lok7pmIx3FLaMIanh-18" parent="1">
          <mxGeometry relative="1" as="geometry" />
        </mxCell>
        <mxCell id="sR_lok7pmIx3FLaMIanh-17" value="Insira o primeiro número:" style="shape=parallelogram;perimeter=parallelogramPerimeter;whiteSpace=wrap;html=1;fixedSize=1;" vertex="1" parent="1">
          <mxGeometry x="1170" y="1090" width="230" height="40" as="geometry" />
        </mxCell>
        <mxCell id="sR_lok7pmIx3FLaMIanh-18" value="Insira o segundo número:" style="shape=parallelogram;perimeter=parallelogramPerimeter;whiteSpace=wrap;html=1;fixedSize=1;" vertex="1" parent="1">
          <mxGeometry x="1170" y="1170" width="230" height="40" as="geometry" />
        </mxCell>
        <mxCell id="sR_lok7pmIx3FLaMIanh-19" value="divisaoNumeros = numero1 / numero2" style="rounded=0;whiteSpace=wrap;html=1;" vertex="1" parent="1">
          <mxGeometry x="1185" y="1250" width="200" height="40" as="geometry" />
        </mxCell>
        <mxCell id="sR_lok7pmIx3FLaMIanh-20" value="Resultado da divisão: ____." style="shape=display;whiteSpace=wrap;html=1;" vertex="1" parent="1">
          <mxGeometry x="1190" y="1330" width="190" height="40" as="geometry" />
        </mxCell>
        <mxCell id="sR_lok7pmIx3FLaMIanh-21" value="" style="endArrow=classic;html=1;rounded=0;exitX=0.5;exitY=1;exitDx=0;exitDy=0;entryX=0.5;entryY=0;entryDx=0;entryDy=0;" edge="1" parent="1">
          <mxGeometry width="50" height="50" relative="1" as="geometry">
            <mxPoint x="1284.5" y="1050" as="sourcePoint" />
            <mxPoint x="1284.5" y="1090" as="targetPoint" />
          </mxGeometry>
        </mxCell>
        <mxCell id="sR_lok7pmIx3FLaMIanh-22" value="" style="endArrow=classic;html=1;rounded=0;exitX=0.5;exitY=1;exitDx=0;exitDy=0;entryX=0.5;entryY=0;entryDx=0;entryDy=0;" edge="1" parent="1">
          <mxGeometry width="50" height="50" relative="1" as="geometry">
            <mxPoint x="1284.5" y="1130" as="sourcePoint" />
            <mxPoint x="1284.5" y="1170" as="targetPoint" />
          </mxGeometry>
        </mxCell>
        <mxCell id="sR_lok7pmIx3FLaMIanh-23" value="" style="endArrow=classic;html=1;rounded=0;exitX=0.5;exitY=1;exitDx=0;exitDy=0;entryX=0.5;entryY=0;entryDx=0;entryDy=0;" edge="1" parent="1">
          <mxGeometry width="50" height="50" relative="1" as="geometry">
            <mxPoint x="1284.5" y="1210" as="sourcePoint" />
            <mxPoint x="1284.5" y="1250" as="targetPoint" />
          </mxGeometry>
        </mxCell>
        <mxCell id="sR_lok7pmIx3FLaMIanh-24" value="" style="endArrow=classic;html=1;rounded=0;exitX=0.5;exitY=1;exitDx=0;exitDy=0;entryX=0.5;entryY=0;entryDx=0;entryDy=0;" edge="1" parent="1">
          <mxGeometry width="50" height="50" relative="1" as="geometry">
            <mxPoint x="1284.5" y="1290" as="sourcePoint" />
            <mxPoint x="1284.5" y="1330" as="targetPoint" />
          </mxGeometry>
        </mxCell>
        <mxCell id="sR_lok7pmIx3FLaMIanh-25" value="" style="endArrow=classic;html=1;rounded=0;exitX=0.5;exitY=1;exitDx=0;exitDy=0;entryX=0.5;entryY=0;entryDx=0;entryDy=0;" edge="1" parent="1">
          <mxGeometry width="50" height="50" relative="1" as="geometry">
            <mxPoint x="1284.5" y="1370" as="sourcePoint" />
            <mxPoint x="1284.5" y="1410" as="targetPoint" />
          </mxGeometry>
        </mxCell>
        <mxCell id="sR_lok7pmIx3FLaMIanh-26" value="" style="ellipse;whiteSpace=wrap;html=1;aspect=fixed;strokeColor=default;align=center;verticalAlign=middle;fontFamily=Helvetica;fontSize=12;fontColor=default;fillColor=default;" vertex="1" parent="1">
          <mxGeometry x="1265" y="1010" width="40" height="40" as="geometry" />
        </mxCell>
        <mxCell id="sR_lok7pmIx3FLaMIanh-27" value="&lt;div&gt;11. Solicite um número inteiro e imprima se é par ou ímpar.&lt;br&gt;&lt;/div&gt;" style="text;html=1;align=left;verticalAlign=middle;whiteSpace=wrap;rounded=0;" vertex="1" parent="1">
          <mxGeometry x="1480" y="30" width="320" height="30" as="geometry" />
        </mxCell>
        <mxCell id="sR_lok7pmIx3FLaMIanh-30" value="" style="edgeStyle=orthogonalEdgeStyle;rounded=0;orthogonalLoop=1;jettySize=auto;html=1;" edge="1" parent="1" source="sR_lok7pmIx3FLaMIanh-31">
          <mxGeometry relative="1" as="geometry">
            <mxPoint x="1635" y="230" as="targetPoint" />
          </mxGeometry>
        </mxCell>
        <mxCell id="sR_lok7pmIx3FLaMIanh-31" value="Insira o primeiro número:" style="shape=parallelogram;perimeter=parallelogramPerimeter;whiteSpace=wrap;html=1;fixedSize=1;" vertex="1" parent="1">
          <mxGeometry x="1520" y="150" width="230" height="40" as="geometry" />
        </mxCell>
        <mxCell id="sR_lok7pmIx3FLaMIanh-34" value="O número {numero} é par." style="shape=display;whiteSpace=wrap;html=1;" vertex="1" parent="1">
          <mxGeometry x="1480" y="410" width="140" height="40" as="geometry" />
        </mxCell>
        <mxCell id="sR_lok7pmIx3FLaMIanh-35" value="" style="endArrow=classic;html=1;rounded=0;exitX=0.5;exitY=1;exitDx=0;exitDy=0;entryX=0.5;entryY=0;entryDx=0;entryDy=0;" edge="1" parent="1">
          <mxGeometry width="50" height="50" relative="1" as="geometry">
            <mxPoint x="1634.5" y="110" as="sourcePoint" />
            <mxPoint x="1634.5" y="150" as="targetPoint" />
          </mxGeometry>
        </mxCell>
        <mxCell id="sR_lok7pmIx3FLaMIanh-36" value="" style="endArrow=classic;html=1;rounded=0;exitX=0.5;exitY=1;exitDx=0;exitDy=0;entryX=0.5;entryY=0;entryDx=0;entryDy=0;" edge="1" parent="1">
          <mxGeometry width="50" height="50" relative="1" as="geometry">
            <mxPoint x="1634.5" y="190" as="sourcePoint" />
            <mxPoint x="1634.5" y="230" as="targetPoint" />
          </mxGeometry>
        </mxCell>
        <mxCell id="sR_lok7pmIx3FLaMIanh-39" value="" style="endArrow=classic;html=1;rounded=0;exitX=0.5;exitY=1;exitDx=0;exitDy=0;entryX=0;entryY=0.5;entryDx=0;entryDy=0;" edge="1" parent="1" target="sR_lok7pmIx3FLaMIanh-41">
          <mxGeometry width="50" height="50" relative="1" as="geometry">
            <mxPoint x="1564.5" y="450" as="sourcePoint" />
            <mxPoint x="1564.5" y="490" as="targetPoint" />
            <Array as="points">
              <mxPoint x="1565" y="510" />
            </Array>
          </mxGeometry>
        </mxCell>
        <mxCell id="sR_lok7pmIx3FLaMIanh-40" value="" style="ellipse;whiteSpace=wrap;html=1;aspect=fixed;strokeColor=default;align=center;verticalAlign=middle;fontFamily=Helvetica;fontSize=12;fontColor=default;fillColor=default;" vertex="1" parent="1">
          <mxGeometry x="1615" y="70" width="40" height="40" as="geometry" />
        </mxCell>
        <mxCell id="sR_lok7pmIx3FLaMIanh-41" value="" style="ellipse;whiteSpace=wrap;html=1;aspect=fixed;strokeColor=default;align=center;verticalAlign=middle;fontFamily=Helvetica;fontSize=12;fontColor=default;fillColor=default;strokeWidth=2;" vertex="1" parent="1">
          <mxGeometry x="1630" y="490" width="40" height="40" as="geometry" />
        </mxCell>
        <mxCell id="sR_lok7pmIx3FLaMIanh-42" value="" style="edgeStyle=orthogonalEdgeStyle;rounded=0;orthogonalLoop=1;jettySize=auto;html=1;" edge="1" parent="1" source="sR_lok7pmIx3FLaMIanh-43">
          <mxGeometry relative="1" as="geometry">
            <mxPoint x="1635" y="230" as="targetPoint" />
          </mxGeometry>
        </mxCell>
        <mxCell id="sR_lok7pmIx3FLaMIanh-43" value="Insira um número:" style="shape=parallelogram;perimeter=parallelogramPerimeter;whiteSpace=wrap;html=1;fixedSize=1;" vertex="1" parent="1">
          <mxGeometry x="1520" y="150" width="230" height="40" as="geometry" />
        </mxCell>
        <mxCell id="sR_lok7pmIx3FLaMIanh-45" value="verificadorNumeroImpar = numero % 2" style="rounded=0;whiteSpace=wrap;html=1;" vertex="1" parent="1">
          <mxGeometry x="1535" y="230" width="200" height="40" as="geometry" />
        </mxCell>
        <mxCell id="sR_lok7pmIx3FLaMIanh-47" value="" style="endArrow=classic;html=1;rounded=0;exitX=0.5;exitY=1;exitDx=0;exitDy=0;entryX=0.5;entryY=0;entryDx=0;entryDy=0;" edge="1" parent="1">
          <mxGeometry width="50" height="50" relative="1" as="geometry">
            <mxPoint x="1634.5" y="110" as="sourcePoint" />
            <mxPoint x="1634.5" y="150" as="targetPoint" />
          </mxGeometry>
        </mxCell>
        <mxCell id="sR_lok7pmIx3FLaMIanh-51" value="" style="endArrow=classic;html=1;rounded=0;exitX=0;exitY=0.5;exitDx=0;exitDy=0;" edge="1" parent="1" source="sR_lok7pmIx3FLaMIanh-53">
          <mxGeometry width="50" height="50" relative="1" as="geometry">
            <mxPoint x="1535" y="350" as="sourcePoint" />
            <mxPoint x="1530" y="410" as="targetPoint" />
            <Array as="points">
              <mxPoint x="1530" y="350" />
            </Array>
          </mxGeometry>
        </mxCell>
        <mxCell id="sR_lok7pmIx3FLaMIanh-52" value="" style="ellipse;whiteSpace=wrap;html=1;aspect=fixed;strokeColor=default;align=center;verticalAlign=middle;fontFamily=Helvetica;fontSize=12;fontColor=default;fillColor=default;" vertex="1" parent="1">
          <mxGeometry x="1615" y="70" width="40" height="40" as="geometry" />
        </mxCell>
        <mxCell id="sR_lok7pmIx3FLaMIanh-53" value="verificadorNumeroImpar = 1" style="rhombus;whiteSpace=wrap;html=1;" vertex="1" parent="1">
          <mxGeometry x="1547.5" y="310" width="175" height="80" as="geometry" />
        </mxCell>
        <mxCell id="sR_lok7pmIx3FLaMIanh-55" value="" style="edgeStyle=orthogonalEdgeStyle;rounded=0;orthogonalLoop=1;jettySize=auto;html=1;entryX=0.5;entryY=0;entryDx=0;entryDy=0;exitX=0.5;exitY=1;exitDx=0;exitDy=0;" edge="1" parent="1" source="sR_lok7pmIx3FLaMIanh-45" target="sR_lok7pmIx3FLaMIanh-53">
          <mxGeometry relative="1" as="geometry">
            <mxPoint x="1645" y="200" as="sourcePoint" />
            <mxPoint x="1645" y="240" as="targetPoint" />
          </mxGeometry>
        </mxCell>
        <mxCell id="sR_lok7pmIx3FLaMIanh-56" value="&lt;b&gt;NÃO&lt;/b&gt;" style="text;html=1;align=center;verticalAlign=middle;whiteSpace=wrap;rounded=0;" vertex="1" parent="1">
          <mxGeometry x="1510" y="330" width="60" height="30" as="geometry" />
        </mxCell>
        <mxCell id="sR_lok7pmIx3FLaMIanh-57" value="&lt;b&gt;SIM&lt;/b&gt;" style="text;html=1;align=center;verticalAlign=middle;whiteSpace=wrap;rounded=0;" vertex="1" parent="1">
          <mxGeometry x="1700" y="330" width="60" height="20" as="geometry" />
        </mxCell>
        <mxCell id="sR_lok7pmIx3FLaMIanh-58" value="" style="endArrow=classic;html=1;rounded=0;exitX=1;exitY=0.5;exitDx=0;exitDy=0;" edge="1" parent="1" source="sR_lok7pmIx3FLaMIanh-53">
          <mxGeometry width="50" height="50" relative="1" as="geometry">
            <mxPoint x="1574.5" y="460" as="sourcePoint" />
            <mxPoint x="1750" y="400" as="targetPoint" />
            <Array as="points">
              <mxPoint x="1750" y="350" />
            </Array>
          </mxGeometry>
        </mxCell>
        <mxCell id="sR_lok7pmIx3FLaMIanh-60" value="O número {numero} é impar." style="shape=display;whiteSpace=wrap;html=1;" vertex="1" parent="1">
          <mxGeometry x="1660" y="405" width="140" height="40" as="geometry" />
        </mxCell>
        <mxCell id="sR_lok7pmIx3FLaMIanh-61" value="" style="endArrow=classic;html=1;rounded=0;exitX=0.631;exitY=0.946;exitDx=0;exitDy=0;entryX=1;entryY=0.5;entryDx=0;entryDy=0;exitPerimeter=0;" edge="1" parent="1" source="sR_lok7pmIx3FLaMIanh-60" target="sR_lok7pmIx3FLaMIanh-41">
          <mxGeometry width="50" height="50" relative="1" as="geometry">
            <mxPoint x="1574.5" y="460" as="sourcePoint" />
            <mxPoint x="1640" y="520" as="targetPoint" />
            <Array as="points">
              <mxPoint x="1748" y="510" />
            </Array>
          </mxGeometry>
        </mxCell>
        <mxCell id="sR_lok7pmIx3FLaMIanh-63" value="12. Peça ao usuário para digitar sua cidade e imprima a mensagem &quot;Bem-vindo(a) à cidade de [cidade]&quot;." style="text;html=1;align=left;verticalAlign=middle;whiteSpace=wrap;rounded=0;" vertex="1" parent="1">
          <mxGeometry x="1490" y="560" width="320" height="30" as="geometry" />
        </mxCell>
        <mxCell id="sR_lok7pmIx3FLaMIanh-64" value="" style="line;strokeWidth=2;html=1;" vertex="1" parent="1">
          <mxGeometry x="1500" y="545" width="280" height="10" as="geometry" />
        </mxCell>
        <mxCell id="sR_lok7pmIx3FLaMIanh-66" value="" style="edgeStyle=orthogonalEdgeStyle;rounded=0;orthogonalLoop=1;jettySize=auto;html=1;" edge="1" source="sR_lok7pmIx3FLaMIanh-67" parent="1">
          <mxGeometry relative="1" as="geometry">
            <mxPoint x="1635" y="760" as="targetPoint" />
          </mxGeometry>
        </mxCell>
        <mxCell id="sR_lok7pmIx3FLaMIanh-67" value="Insira o primeiro número:" style="shape=parallelogram;perimeter=parallelogramPerimeter;whiteSpace=wrap;html=1;fixedSize=1;" vertex="1" parent="1">
          <mxGeometry x="1520" y="680" width="230" height="40" as="geometry" />
        </mxCell>
        <mxCell id="sR_lok7pmIx3FLaMIanh-71" value="" style="endArrow=classic;html=1;rounded=0;exitX=0.5;exitY=1;exitDx=0;exitDy=0;entryX=0.5;entryY=0;entryDx=0;entryDy=0;" edge="1" parent="1">
          <mxGeometry width="50" height="50" relative="1" as="geometry">
            <mxPoint x="1634.5" y="640" as="sourcePoint" />
            <mxPoint x="1634.5" y="680" as="targetPoint" />
          </mxGeometry>
        </mxCell>
        <mxCell id="sR_lok7pmIx3FLaMIanh-72" value="" style="endArrow=classic;html=1;rounded=0;exitX=0.5;exitY=1;exitDx=0;exitDy=0;entryX=0.5;entryY=0;entryDx=0;entryDy=0;" edge="1" parent="1">
          <mxGeometry width="50" height="50" relative="1" as="geometry">
            <mxPoint x="1634.5" y="720" as="sourcePoint" />
            <mxPoint x="1634.5" y="760" as="targetPoint" />
          </mxGeometry>
        </mxCell>
        <mxCell id="sR_lok7pmIx3FLaMIanh-76" value="" style="ellipse;whiteSpace=wrap;html=1;aspect=fixed;strokeColor=default;align=center;verticalAlign=middle;fontFamily=Helvetica;fontSize=12;fontColor=default;fillColor=default;" vertex="1" parent="1">
          <mxGeometry x="1615" y="600" width="40" height="40" as="geometry" />
        </mxCell>
        <mxCell id="sR_lok7pmIx3FLaMIanh-77" value="" style="ellipse;whiteSpace=wrap;html=1;aspect=fixed;strokeColor=default;align=center;verticalAlign=middle;fontFamily=Helvetica;fontSize=12;fontColor=default;fillColor=default;strokeWidth=2;" vertex="1" parent="1">
          <mxGeometry x="1615" y="840" width="40" height="40" as="geometry" />
        </mxCell>
        <mxCell id="sR_lok7pmIx3FLaMIanh-78" value="" style="edgeStyle=orthogonalEdgeStyle;rounded=0;orthogonalLoop=1;jettySize=auto;html=1;" edge="1" source="sR_lok7pmIx3FLaMIanh-79" parent="1">
          <mxGeometry relative="1" as="geometry">
            <mxPoint x="1635" y="760" as="targetPoint" />
          </mxGeometry>
        </mxCell>
        <mxCell id="sR_lok7pmIx3FLaMIanh-79" value="Digite o nome de sua cidade:" style="shape=parallelogram;perimeter=parallelogramPerimeter;whiteSpace=wrap;html=1;fixedSize=1;" vertex="1" parent="1">
          <mxGeometry x="1520" y="680" width="230" height="40" as="geometry" />
        </mxCell>
        <mxCell id="sR_lok7pmIx3FLaMIanh-82" value="Bem-vindo(a) à cidade de {cidade}!" style="shape=display;whiteSpace=wrap;html=1;" vertex="1" parent="1">
          <mxGeometry x="1500" y="760" width="255" height="40" as="geometry" />
        </mxCell>
        <mxCell id="sR_lok7pmIx3FLaMIanh-83" value="" style="endArrow=classic;html=1;rounded=0;exitX=0.5;exitY=1;exitDx=0;exitDy=0;entryX=0.5;entryY=0;entryDx=0;entryDy=0;" edge="1" parent="1">
          <mxGeometry width="50" height="50" relative="1" as="geometry">
            <mxPoint x="1634.5" y="640" as="sourcePoint" />
            <mxPoint x="1634.5" y="680" as="targetPoint" />
          </mxGeometry>
        </mxCell>
        <mxCell id="sR_lok7pmIx3FLaMIanh-84" value="" style="endArrow=classic;html=1;rounded=0;exitX=0.5;exitY=1;exitDx=0;exitDy=0;entryX=0.5;entryY=0;entryDx=0;entryDy=0;" edge="1" parent="1">
          <mxGeometry width="50" height="50" relative="1" as="geometry">
            <mxPoint x="1634.5" y="720" as="sourcePoint" />
            <mxPoint x="1634.5" y="760" as="targetPoint" />
          </mxGeometry>
        </mxCell>
        <mxCell id="sR_lok7pmIx3FLaMIanh-86" value="" style="endArrow=classic;html=1;rounded=0;exitX=0.5;exitY=1;exitDx=0;exitDy=0;entryX=0.5;entryY=0;entryDx=0;entryDy=0;" edge="1" parent="1">
          <mxGeometry width="50" height="50" relative="1" as="geometry">
            <mxPoint x="1634.58" y="800" as="sourcePoint" />
            <mxPoint x="1634.58" y="840" as="targetPoint" />
          </mxGeometry>
        </mxCell>
        <mxCell id="sR_lok7pmIx3FLaMIanh-88" value="" style="ellipse;whiteSpace=wrap;html=1;aspect=fixed;strokeColor=default;align=center;verticalAlign=middle;fontFamily=Helvetica;fontSize=12;fontColor=default;fillColor=default;" vertex="1" parent="1">
          <mxGeometry x="1615" y="600" width="40" height="40" as="geometry" />
        </mxCell>
      </root>
    </mxGraphModel>
  </diagram>
</mxfile>
